<?xml version="1.0" encoding="UTF-8" standalone="no"?>
<svg
   width="256"
   height="256"
   viewBox="0 0 67.733332 67.733335"
   version="1.1"
   id="svg8"
   sodipodi:docname="favicon.svg"
   inkscape:version="1.1 (c68e22c387, 2021-05-23)"
   xmlns:inkscape="http://www.inkscape.org/namespaces/inkscape"
   xmlns:sodipodi="http://sodipodi.sourceforge.net/DTD/sodipodi-0.dtd"
   xmlns="http://www.w3.org/2000/svg"
   xmlns:svg="http://www.w3.org/2000/svg"
   xmlns:rdf="http://www.w3.org/1999/02/22-rdf-syntax-ns#"
   xmlns:cc="http://creativecommons.org/ns#"
   xmlns:dc="http://purl.org/dc/elements/1.1/">
  <sodipodi:namedview
     id="namedview14"
     pagecolor="#ffffff"
     bordercolor="#666666"
     borderopacity="1.0"
     inkscape:pageshadow="2"
     inkscape:pageopacity="0.0"
     inkscape:pagecheckerboard="0"
     showgrid="false"
     inkscape:zoom="2.9101562"
     inkscape:cx="127.82819"
     inkscape:cy="127.82819"
     inkscape:window-width="1920"
     inkscape:window-height="1043"
     inkscape:window-x="1920"
     inkscape:window-y="0"
     inkscape:window-maximized="1"
     inkscape:current-layer="layer1" />
  <defs
     id="defs2" />
  <metadata
     id="metadata5">
    <rdf:RDF>
      <cc:Work
         rdf:about="">
        <dc:format>image/svg+xml</dc:format>
        <dc:type
           rdf:resource="http://purl.org/dc/dcmitype/StillImage" />
      </cc:Work>
    </rdf:RDF>
  </metadata>
  <g
     id="layer1">
    <g
       id="g37990"
       transform="matrix(0.82713507,0,0,0.82713507,116.09341,131.18704)"
       style="stroke-width:1.20899">
      <path
         style="fill:#000000;fill-opacity:1;stroke:none;stroke-width:0.319879px;stroke-linecap:butt;stroke-linejoin:miter;stroke-opacity:1"
         d="m -135.26444,-82.697539 c 0,0 0.94511,-22.791871 1.74045,-34.795391 0.4743,-9.62987 0.12671,-19.29687 -0.87307,-28.88116 0.20421,-2.20257 -0.56836,-8.28766 -0.56836,-8.28766 0,0 7.99764,-0.69341 12.02406,-0.0991 11.55679,0.39533 22.53777,2.02754 34.117579,0.0492 5.94925,-0.98939 12.48023,-0.47728 18.5372,-0.28936 2.34907,0.91466 7.09792,0.42943 7.09792,0.42943 0,0 -1.24655,13.81204 -1.43232,20.20415 0.11429,14.29981 1.24349,28.62339 0.15062,42.882605 -0.34033,4.358614 0.0508,9.945181 0.0508,9.945181 0,0 -6.22246,-0.036 -10.23778,-0.439708 -9.70643,-1.616435 -19.16341,-0.153924 -28.943819,-1.140988 -7.68288,-0.495258 -16.54618,0.12246 -24.22966,-0.05398 -3.24359,0.09579 -7.43359,0.47679 -7.43359,0.47679 z"
         id="path37721" />
      <path
         id="path37723"
         style="fill:#ffffff;fill-opacity:1;stroke:none;stroke-width:0.999999px;stroke-linecap:butt;stroke-linejoin:miter;stroke-opacity:1"
         d="M 189.48828 3.6601562 C 184.17732 3.6838513 178.89402 3.8650117 173.69531 4.2988281 C 173.62875 6.6946734 173.81105 8.9510389 174.47852 10.923828 C 177.9839 26.058571 179.04506 41.653237 178.3418 57.171875 C 177.98529 57.133423 177.62988 57.104626 177.27344 57.060547 C 165.0129 58.091436 152.92133 55.53807 140.875 53.986328 C 126.43711 54.640231 112.08936 56.100039 97.599609 55.955078 C 93.944855 55.47696 90.31674 55.476937 86.699219 55.685547 C 86.80082 54.615737 86.91172 53.545216 87.033203 52.476562 C 85.959729 37.502115 87.505584 22.469442 87.580078 7.4921875 C 82.471361 7.1834062 77.344896 6.8756055 72.203125 6.5625 C 72.052693 17.657456 70.360919 28.660013 69.939453 39.757812 C 69.973216 45.563847 69.824548 51.365889 69.613281 57.166016 C 67.514645 57.278871 65.409547 57.319407 63.296875 57.234375 C 47.26695 57.851858 31.191183 61.004981 15.054688 60.021484 C 14.883238 60.039654 14.705722 60.049743 14.533203 60.066406 C 14.857151 65.10814 15.13048 70.152895 15.335938 75.201172 C 16.947384 75.227562 18.5573 75.241449 20.160156 75.193359 C 35.090728 74.745409 51.139389 75.336508 66.171875 73.328125 C 67.088127 73.410031 68.009294 73.507232 68.927734 73.595703 C 68.49679 83.678571 68.153554 93.765499 68.466797 103.87109 C 67.900458 122.08431 66.238945 143.28735 66.714844 161.49609 C 48.330865 161.66538 31.144998 164.08738 13.052734 165.30469 C 12.761597 170.902 12.474454 176.56627 12.199219 182.17383 C 17.047612 182.34592 21.890794 182.47735 26.708984 182.4082 C 40.640992 183.28565 54.550751 185.02004 68.501953 185.09375 C 68.152584 204.07358 66.76701 223.02704 66.326172 242.00586 C 72.106329 241.89797 77.878203 241.79836 83.650391 241.74414 C 84.295693 231.79327 84.547423 221.83012 83.507812 211.85547 C 83.115133 202.72281 83.138601 193.58772 83.203125 184.45117 C 83.209377 184.45041 83.22031 184.44998 83.226562 184.44922 C 95.214649 184.87514 107.14142 185.58009 119.10156 183.80078 C 137.12374 184.78369 155.0388 182.28464 172.96484 181.26172 C 172.75258 184.99111 172.56421 188.72255 172.42969 192.45508 C 173.79327 209.45322 177.42784 226.33734 175.91211 243.48047 C 181.40539 243.55375 186.90375 243.73558 192.41602 244.125 C 193.1237 230.8839 193.5146 217.63927 190.63672 204.57422 C 190.20406 196.63663 190.24587 188.71555 190.54492 180.80078 C 200.96554 181.11703 211.32454 182.51471 221.80469 182.63281 C 229.53196 183.24964 237.24705 183.07945 244.95117 182.66797 C 245.06395 176.30663 245.09448 169.94212 245.05469 163.57617 C 233.81945 165.08105 222.2433 167.06713 211.45703 164.6875 C 204.56346 162.97463 197.5902 163.23171 190.61328 163.62305 C 191.27375 154.95249 193.18078 143.29565 193.79492 134.625 C 193.89371 120.19409 196.37893 105.83624 194.99609 91.359375 C 194.96108 84.999694 194.79823 78.646365 194.56055 72.296875 C 197.46939 72.366901 200.38017 72.567575 203.29492 72.990234 C 206.91666 72.136537 210.46221 71.851031 213.96875 71.892578 C 223.69229 72.007873 233.1221 74.600953 243.03906 74.59375 C 243.03355 74.024093 243.02213 73.454401 243.01758 72.884766 C 243.13218 68.94159 243.39392 64.011488 243.70312 58.816406 C 235.36422 58.358724 227.04602 57.483547 218.77539 56.332031 C 210.46369 56.137583 202.16002 57.042195 193.86914 57.4375 C 193.42682 49.373332 192.89958 41.314088 192.34375 33.255859 C 192.22148 23.332824 190.16894 13.556988 189.48828 3.6601562 z M 144.75195 72.626953 C 150.12592 72.629798 155.5032 72.800579 160.88477 73.253906 C 166.41857 73.521507 171.92792 73.229783 177.42969 72.894531 C 178.25537 94.925877 178.20346 117.00427 175.68945 138.94727 C 175.3306 146.24915 173.68321 156.53403 173.16992 163.82812 C 171.41379 163.66556 169.6611 163.41803 167.91406 163.04883 C 150.04876 165.63552 132.01077 164.85711 114.19922 162.4668 C 103.48392 162.7072 92.752059 162.35781 82.037109 161.95312 C 81.997094 159.96 83.090731 154.97735 83.017578 152.98438 C 85.302472 135.93938 81.20731 118.8856 83.740234 101.84961 C 84.858875 92.986077 85.188834 84.075908 85.546875 75.169922 C 96.376368 76.015647 107.22712 76.145991 117.87305 73.478516 C 126.84465 73.083148 135.79535 72.622233 144.75195 72.626953 z "
         transform="matrix(0.31987924,0,0,0.31987924,-140.35605,-158.60413)" />
    </g>
    <path
       style="fill:#ffffff;fill-opacity:1;stroke:none;stroke-width:0.264583px;stroke-linecap:butt;stroke-linejoin:miter;stroke-opacity:1"
       d="m -148.27833,-138.76404 c -0.1,0.0138 -0.37655,0.0952 -0.85525,0.28835 0.6979,-0.14682 1.02192,-0.31137 0.85525,-0.28835 z"
       id="path37731" />
  </g>
</svg>
