<?xml version="1.0" encoding="UTF-8" standalone="no"?>
<svg
   width="256"
   height="256"
   viewBox="0 0 67.733332 67.733335"
   version="1.1"
   id="svg8"
   xmlns="http://www.w3.org/2000/svg"
   xmlns:svg="http://www.w3.org/2000/svg"
   xmlns:rdf="http://www.w3.org/1999/02/22-rdf-syntax-ns#"
   xmlns:cc="http://creativecommons.org/ns#"
   xmlns:dc="http://purl.org/dc/elements/1.1/">
  <defs
     id="defs2" />
  <metadata
     id="metadata5">
    <rdf:RDF>
      <cc:Work
         rdf:about="">
        <dc:format>image/svg+xml</dc:format>
        <dc:type
           rdf:resource="http://purl.org/dc/dcmitype/StillImage" />
      </cc:Work>
    </rdf:RDF>
  </metadata>
  <g
     id="layer1">
    <path
       id="rect133302"
       style="vector-effect:none;stroke-width:0.564546;paint-order:markers fill stroke;stop-color:#000000"
       transform="rotate(79.121129)"
       d="m 17.859032,-55.890038 h 43.581541 c 4.165493,0 7.518941,3.353448 7.518941,7.518941 v 43.0096802 c 0,4.1654933 -3.353448,7.5189409 -7.518941,7.5189409 H 17.859032 c -4.165494,0 -7.518941,-3.3534476 -7.518941,-7.5189409 V -48.371097 c 0,-4.165493 3.353447,-7.518941 7.518941,-7.518941 z" />
    <path
       id="path133304"
       style="font-variation-settings:normal;vector-effect:none;fill:#ffffff;fill-opacity:1;stroke:none;stroke-width:0.250709px;stroke-linecap:butt;stroke-linejoin:miter;stroke-miterlimit:4;stroke-dasharray:none;stroke-dashoffset:0;stroke-opacity:1;-inkscape-stroke:none;paint-order:markers fill stroke;stop-color:#000000"
       d="m 16.211549,13.56035 0.141241,25.85504 17.341857,-2.213677 0.107032,5.712656 -17.416136,2.50366 0.06979,12.771654 27.532105,-7.732397 -0.07931,-14.50584 11.447319,-1.439023 0.100888,-13.009153 -6.157094,-0.499672 0.89279,9.418959 -6.309659,0.799347 -0.09746,-17.84777 z m 7.445213,5.362267 10.018318,0.813036 0.01962,12.904011 -9.820677,1.253356 z m 27.630304,21.478152 0.797577,7.782415 3.159933,-0.887462 0.06703,-7.473525 z" />
  </g>
</svg>
