<?xml version="1.0" encoding="UTF-8" standalone="no"?>
<svg
   width="256"
   height="256"
   viewBox="0 0 67.733332 67.733335"
   version="1.1"
   id="svg8"
   inkscape:version="1.1 (c68e22c387, 2021-05-23)"
   sodipodi:docname="src.svg"
   inkscape:export-filename="/home/sean/code/FramedPanesWebsite/assets/img/LogoIcon.png"
   inkscape:export-xdpi="96"
   inkscape:export-ydpi="96"
   xmlns:inkscape="http://www.inkscape.org/namespaces/inkscape"
   xmlns:sodipodi="http://sodipodi.sourceforge.net/DTD/sodipodi-0.dtd"
   xmlns="http://www.w3.org/2000/svg"
   xmlns:svg="http://www.w3.org/2000/svg"
   xmlns:rdf="http://www.w3.org/1999/02/22-rdf-syntax-ns#"
   xmlns:cc="http://creativecommons.org/ns#"
   xmlns:dc="http://purl.org/dc/elements/1.1/">
  <defs
     id="defs2" />
  <sodipodi:namedview
     id="base"
     pagecolor="#848484"
     bordercolor="#666666"
     borderopacity="1.0"
     inkscape:pageopacity="0"
     inkscape:pageshadow="2"
     inkscape:zoom="1.4142136"
     inkscape:cx="38.183766"
     inkscape:cy="33.234019"
     inkscape:document-units="px"
     inkscape:current-layer="layer1"
     inkscape:document-rotation="0"
     showgrid="false"
     inkscape:showpageshadow="false"
     inkscape:pagecheckerboard="true"
     inkscape:snap-global="false"
     inkscape:window-width="1920"
     inkscape:window-height="1043"
     inkscape:window-x="0"
     inkscape:window-y="0"
     inkscape:window-maximized="1"
     units="px"
     showborder="true"
     inkscape:snap-page="true" />
  <metadata
     id="metadata5">
    <rdf:RDF>
      <cc:Work
         rdf:about="">
        <dc:format>image/svg+xml</dc:format>
        <dc:type
           rdf:resource="http://purl.org/dc/dcmitype/StillImage" />
      </cc:Work>
    </rdf:RDF>
  </metadata>
  <g
     inkscape:label="Layer 1"
     inkscape:groupmode="layer"
     id="layer1">
    <path
       style="fill:#ffffff;fill-opacity:1;stroke:none;stroke-width:0.264583px;stroke-linecap:butt;stroke-linejoin:miter;stroke-opacity:1"
       d="m -78.902201,-66.126617 c -0.46907,0.06152 0.35973,0.193477 0,0 z"
       id="path37727" />
    <path
       style="fill:#ffffff;fill-opacity:1;stroke:none;stroke-width:0.264583px;stroke-linecap:butt;stroke-linejoin:miter;stroke-opacity:1"
       d="m -79.497001,-66.7488 c 0.45473,0.585409 1.03064,0.807897 0,0 z"
       id="path37729" />
    <path
       style="fill:#ffffff;fill-opacity:1;stroke:none;stroke-width:0.264583px;stroke-linecap:butt;stroke-linejoin:miter;stroke-opacity:1"
       d="m -148.27833,-138.76404 c -0.1,0.0138 -0.37655,0.0952 -0.85525,0.28835 0.6979,-0.14682 1.02192,-0.31137 0.85525,-0.28835 z"
       id="path37731" />
    <g
       id="g10834"
       transform="translate(-22.470487,-86.717037)">
      <g
         id="g37990"
         transform="matrix(0.82713507,0,0,0.82713507,116.09341,131.18704)"
         style="stroke-width:1.20899">
        <path
           style="fill:#000000;fill-opacity:1;stroke:none;stroke-width:0.319879px;stroke-linecap:butt;stroke-linejoin:miter;stroke-opacity:1"
           d="m -135.26444,-82.697539 c 0,0 0.94511,-22.791871 1.74045,-34.795391 0.4743,-9.62987 0.12671,-19.29687 -0.87307,-28.88116 0.20421,-2.20257 -0.56836,-8.28766 -0.56836,-8.28766 0,0 7.99764,-0.69341 12.02406,-0.0991 11.55679,0.39533 22.53777,2.02754 34.117579,0.0492 5.94925,-0.98939 12.48023,-0.47728 18.5372,-0.28936 2.34907,0.91466 7.09792,0.42943 7.09792,0.42943 0,0 -1.24655,13.81204 -1.43232,20.20415 0.11429,14.29981 1.24349,28.62339 0.15062,42.882605 -0.34033,4.358614 0.0508,9.945181 0.0508,9.945181 0,0 -6.22246,-0.036 -10.23778,-0.439708 -9.70643,-1.616435 -19.16341,-0.153924 -28.943819,-1.140988 -7.68288,-0.495258 -16.54618,0.12246 -24.22966,-0.05398 -3.24359,0.09579 -7.43359,0.47679 -7.43359,0.47679 z"
           id="path37721"
           sodipodi:nodetypes="cccccccccccccccc" />
        <path
           id="path37723"
           style="fill:#ffffff;fill-opacity:1;stroke:none;stroke-width:0.999999px;stroke-linecap:butt;stroke-linejoin:miter;stroke-opacity:1"
           d="m 189.48828,3.6601562 c -5.31096,0.023695 -10.59426,0.2048555 -15.79297,0.6386719 -0.0666,2.3958453 0.11574,4.6522108 0.78321,6.6249999 3.50538,15.134743 4.56654,30.729409 3.86328,46.248047 -0.35651,-0.03845 -0.71192,-0.06725 -1.06836,-0.111328 C 165.0129,58.091436 152.92133,55.53807 140.875,53.986328 126.43711,54.640231 112.08936,56.100039 97.599609,55.955078 93.944855,55.47696 90.31674,55.476937 86.699219,55.685547 86.80082,54.615737 86.91172,53.545216 87.033203,52.476562 85.959729,37.502115 87.505584,22.469442 87.580078,7.4921875 82.471361,7.1834062 77.344896,6.8756055 72.203125,6.5625 c -0.150432,11.094956 -1.842206,22.097513 -2.263672,33.195312 0.03376,5.806035 -0.114905,11.608077 -0.326172,17.408204 -2.098636,0.112855 -4.203734,0.153391 -6.316406,0.06836 -16.029925,0.617483 -32.105692,3.770606 -48.242187,2.787109 -0.17145,0.01817 -0.348966,0.02826 -0.521485,0.04492 0.323948,5.041734 0.597277,10.086489 0.802735,15.134766 1.611446,0.02639 3.221362,0.04028 4.824218,-0.0078 14.930572,-0.44795 30.979233,0.143149 46.011719,-1.865234 0.916252,0.08191 1.837419,0.179107 2.755859,0.267578 -0.430944,10.082868 -0.77418,20.169796 -0.460937,30.275387 -0.566339,18.21322 -2.227852,39.41626 -1.751953,57.625 -18.383979,0.16929 -35.569846,2.59129 -53.66211,3.8086 -0.291137,5.59731 -0.57828,11.26158 -0.853515,16.86914 4.848393,0.17209 9.691575,0.30352 14.509765,0.23437 13.932008,0.87745 27.841767,2.61184 41.792969,2.68555 -0.349369,18.97983 -1.734943,37.93329 -2.175781,56.91211 5.780157,-0.10789 11.552031,-0.2075 17.324219,-0.26172 0.645302,-9.95087 0.897032,-19.91402 -0.142579,-29.88867 -0.392679,-9.13266 -0.369211,-18.26775 -0.304687,-27.4043 0.0063,-7.6e-4 0.01718,-0.001 0.02344,-0.002 11.988087,0.42592 23.914858,1.13087 35.874998,-0.64844 18.02218,0.98291 35.93724,-1.51614 53.86328,-2.53906 -0.21226,3.72939 -0.40063,7.46083 -0.53515,11.19336 1.36358,16.99814 4.99815,33.88226 3.48242,51.02539 5.49328,0.0733 10.99164,0.25511 16.50391,0.64453 0.70768,-13.2411 1.09858,-26.48573 -1.7793,-39.55078 -0.43266,-7.93759 -0.39085,-15.85867 -0.0918,-23.77344 10.42062,0.31625 20.77962,1.71393 31.25977,1.83203 7.72727,0.61683 15.44236,0.44664 23.14648,0.0352 0.11278,-6.36134 0.14331,-12.72585 0.10352,-19.0918 -11.23524,1.50488 -22.81139,3.49096 -33.59766,1.11133 -6.89357,-1.71287 -13.86683,-1.45579 -20.84375,-1.06445 0.66047,-8.67056 2.5675,-20.3274 3.18164,-28.99805 0.0988,-14.43091 2.58401,-28.78876 1.20117,-43.265625 -0.035,-6.359681 -0.19786,-12.71301 -0.43554,-19.0625 2.90884,0.07003 5.81962,0.2707 8.73437,0.693359 3.62174,-0.853697 7.16729,-1.139203 10.67383,-1.097656 9.72354,0.115295 19.15335,2.708375 29.07031,2.701172 -0.006,-0.569657 -0.0169,-1.139349 -0.0215,-1.708984 0.1146,-3.943176 0.37634,-8.873278 0.68554,-14.06836 -8.3389,-0.457682 -16.6571,-1.332859 -24.92773,-2.484375 -8.3117,-0.194448 -16.61537,0.710164 -24.90625,1.105469 -0.44232,-8.064168 -0.96956,-16.123412 -1.52539,-24.181641 -0.12227,-9.923035 -2.17481,-19.698871 -2.85547,-29.5957028 z M 144.75195,72.626953 c 5.37397,0.0028 10.75125,0.173626 16.13282,0.626953 5.5338,0.267601 11.04315,-0.02412 16.54492,-0.359375 0.82568,22.031346 0.77377,44.109739 -1.74024,66.052739 -0.35885,7.30188 -2.00624,17.58676 -2.51953,24.88085 -1.75613,-0.16256 -3.50882,-0.41009 -5.25586,-0.77929 -17.8653,2.58669 -35.90329,1.80828 -53.71484,-0.58203 -10.7153,0.2404 -21.447161,-0.10899 -32.162111,-0.51368 -0.04001,-1.99312 1.053622,-6.97577 0.980469,-8.96874 2.284894,-17.045 -1.810268,-34.09878 0.722656,-51.13477 1.118641,-8.863533 1.4486,-17.773702 1.806641,-26.679688 10.829493,0.845725 21.680245,0.976069 32.326175,-1.691406 8.9716,-0.395368 17.9223,-0.856283 26.8789,-0.851563 z"
           transform="matrix(0.31987924,0,0,0.31987924,-140.35605,-158.60413)" />
        <path
           id="path37725"
           style="fill:#ffffff;fill-opacity:1;stroke:none;stroke-width:0.999998px;stroke-linecap:butt;stroke-linejoin:miter;stroke-opacity:1"
           d="m 159.74609,23.050781 c -0.61598,0.09072 -1.23393,0.175604 -1.8457,0.277344 -3.9636,0.677146 -7.90251,1.202047 -11.82227,1.603516 -5.30649,5.681995 -10.57451,11.399703 -15.92578,17.039062 2.87166,-0.172582 5.75984,-0.338279 8.6836,-0.470703 h 0.002 c 0.63177,-0.02812 1.26979,-0.0024 1.90625,0.08008 0.67181,0.08654 1.27902,0.17156 1.94336,0.259766 5.56964,-6.366884 11.27787,-12.61049 17.05859,-18.789063 z m -16.53906,59.126953 c -4.31811,-0.0017 -8.69936,0.115359 -13.13281,0.279297 -1.19633,1.218254 -2.38497,2.442687 -3.58399,3.658203 -10.58149,12.478896 -21.97483,24.165906 -33.773433,35.443356 0.34786,7.8248 1.039563,20.00702 0.406333,28.99137 6.95287,0.20476 12.95969,-0.93459 20.64266,-0.50085 7.68296,0.43374 0.44395,-1.71602 7.25428,-1.43071 9.76771,-10.73722 34.37748,-36.29658 43.96645,-47.12751 0.556,-11.162135 0.38713,-7.389612 0.13471,-18.713546 -2.08603,0.02812 -4.118,0.119983 -6.30664,0.01367 -0.007,-5.3e-4 -0.009,-0.0011 -0.0156,-0.002 -0.11817,-0.0066 -0.24567,-0.01409 -0.37891,-0.02344 h -0.006 C 153.41638,82.344645 148.35055,82.18009 143.209,82.177683 Z m -36.69141,2.552735 c -4.07111,0.386247 -8.090215,0.509511 -12.039058,0.453125 -0.21297,4.173359 -0.473724,8.392017 -0.90625,12.693359 4.246305,-4.209158 8.533828,-8.535686 12.945308,-13.146484 z m 119.94141,14.818359 c -7.46786,7.140212 -14.98473,14.239552 -22.5918,21.271482 -0.29881,4.26721 -0.55874,8.43941 -0.58593,12.40625 -0.002,0.24134 -0.0129,0.47006 -0.0254,0.68555 -5.4e-4,0.007 8.7e-4,0.0132 0,0.0195 -0.11263,1.59009 -0.23905,3.16002 -0.36133,4.73438 l 24,-23.19532 c -0.15966,-5.30752 -0.30487,-10.61476 -0.43555,-15.921872 z M 55.533203,116.52148 c -3.22624,3.01472 -6.464431,6.01577 -9.722656,8.99805 -4.774902,5.00346 -9.677531,9.87322 -14.638672,14.68164 -0.182964,3.12843 -0.364319,6.40273 -0.546875,9.74024 2.394136,-0.37342 4.688179,-0.71506 7.134766,-1.08399 3.331435,-3.03647 6.651137,-6.09759 9.941406,-9.21875 2.569966,-2.18083 5.085789,-4.34094 7.585937,-6.49805 0.03921,-5.55516 0.125581,-11.0941 0.246094,-16.61914 z m 91.861327,76.16602 c -6.48912,0.46708 -13.09871,0.82161 -19.85937,0.84961 -10.81024,10.34618 -21.63059,20.68303 -32.421879,31.04883 6.792629,-0.0123 13.484729,0.0905 19.892579,0.46679 z m -54.650389,1.58008 c 2.15e-4,0.0923 0.002,0.18504 0.002,0.27734 0.08521,-0.0904 0.170689,-0.18109 0.255859,-0.27148 -0.08495,-0.002 -0.172924,-0.003 -0.257812,-0.006 z"
           transform="matrix(0.31987924,0,0,0.31987924,-140.35605,-158.60413)"
           sodipodi:nodetypes="sccccccccsccccccccccccssccccccsccccccccccccccccccccccccc" />
      </g>
      <path
         style="fill:#ffffff;fill-opacity:1;stroke:none;stroke-width:0.264583px;stroke-linecap:butt;stroke-linejoin:miter;stroke-opacity:1"
         d="m 53.368026,5.7284716 8.178408,-0.212889 -0.100471,6.0868164 C 53.5564,13.184061 53.648411,13.421833 53.368026,5.7284716 Z"
         id="path38258"
         sodipodi:nodetypes="cccc" />
      <path
         style="fill:#ffffff;fill-opacity:1;stroke:none;stroke-width:0.264583px;stroke-linecap:butt;stroke-linejoin:miter;stroke-opacity:1"
         d="m 40.288099,41.038308 3.625886,-3.268321 -0.584059,3.134245 z"
         id="path47149"
         sodipodi:nodetypes="cccc" />
      <path
         style="fill:#ffffff;fill-opacity:1;stroke:none;stroke-width:0.264583px;stroke-linecap:butt;stroke-linejoin:miter;stroke-opacity:1"
         d="m 14.987138,51.150756 0.212889,8.178408 -6.0868161,-0.100471 C 7.5315489,51.33913 7.2937769,51.431141 14.987138,51.150756 Z"
         id="path51696"
         sodipodi:nodetypes="cccc" />
    </g>
    <g
       id="g10221"
       transform="translate(-108.90456,2.4288869)">
      <path
         style="fill:#000000;fill-opacity:1;stroke:none;stroke-width:0.264583px;stroke-linecap:butt;stroke-linejoin:miter;stroke-opacity:1"
         d="m -193.56825,69.14191 c 0,0 0.94511,-22.791867 1.74045,-34.795396 0.4743,-9.62987 0.12671,-19.29687 -0.87307,-28.8811599 0.20421,-2.20257 -0.56836,-8.28766 -0.56836,-8.28766 0,0 7.99764,-0.69341 12.02406,-0.0991 11.55679,0.39533 22.53777,2.02754001 34.11758,0.0492 5.94925,-0.98939 12.48023,-0.47728 18.5372,-0.28936 2.34907,0.91466 7.09792,0.42943 7.09792,0.42943 0,0 -1.24655,13.8120399 -1.43232,20.2041499 0.11429,14.29981 1.24349,28.623395 0.15062,42.88261 -0.34033,4.358614 0.0508,9.945181 0.0508,9.945181 0,0 -6.22246,-0.036 -10.23778,-0.439708 -9.70643,-1.616435 -19.16341,-0.153924 -28.94382,-1.140988 -7.68288,-0.495258 -16.54618,0.12246 -24.22966,-0.05398 -3.24359,0.09579 -7.43359,0.47679 -7.43359,0.47679 z"
         id="path17873"
         sodipodi:nodetypes="cccccccccccccccc" />
      <path
         id="path17256"
         style="fill:#ffffff;fill-opacity:1;stroke:none;stroke-width:0.264583px;stroke-linecap:butt;stroke-linejoin:miter;stroke-opacity:1"
         d="m -141.00527,-19.286446 c -5.03081,0.23239 -10.03356,0.3442 -15.05179,0.031 -6.46674,0.2278 -12.91605,0.84638 -19.36781,1.3255 -1.43242,2.6278 1.38705,7.90613 -0.15503,11.5553601 0.15555,4.13094 -0.55154,8.20839 -0.70797,12.32742 0.0108,1.85723 -0.0368,3.71331 -0.10438,5.5686499 -0.67131,0.0361 -1.34475,0.0494 -2.02055,0.0222 -5.12764,0.19752 -10.26989,1.20602 -15.43162,0.89142 -4.07501,0.43185 -9.11182,-0.49142 -12.52326,0.96376 -1.61261,0.62738 -6.70786,-1.1304 -5.1723,3.45561 -0.2143,8.01939 1.1662,15.99372 0.43099,24.01145 0.45567,3.558085 -0.59353,8.899757 0.43718,11.344531 6.72496,-1.635384 13.71035,-0.528076 20.55533,-0.626319 4.45656,0.28068 8.90651,0.835286 13.36921,0.858863 -0.15024,8.161937 -0.90183,16.308252 -0.709,24.48016 0.1624,3.461858 -2.04614,10.312061 3.73569,9.29504 4.42076,-0.577819 8.92021,0.202673 13.28446,-0.817523 6.63321,-1.670608 13.37895,-0.01601 20.08249,-0.169498 4.38926,0.995355 1.13523,-4.948713 2.94556,-7.520987 0.1381,-6.343335 1.11291,-12.753832 -0.27078,-19.035531 -0.1384,-2.53907 -0.12516,-5.073452 -0.0295,-7.605221 3.33334,0.101161 6.64701,0.548234 9.99939,0.586011 4.88256,0.38975 9.74911,-0.198628 14.60583,-0.436149 4.40014,0.875179 8.50148,-1.593023 12.88138,-0.843876 4.06665,1.970162 0.483,-5.414839 1.2082,-7.632611 0.0503,-7.16731 -2.31641,-14.23474 -1.07229,-21.41782 -0.14915,-3.41176 3.84819,-10.86689 -2.51251,-9.15758 -4.50341,-0.65412 -8.99425,0.4254 -13.5108,-0.007 -4.20429,0.0372 -8.40599,-0.32624 -12.56926,-0.90589 -2.65874,-0.0622 -5.31436,0.22753 -7.96644,0.35398 -0.14149,-2.5795599 -0.31054,-5.1577799 -0.48834,-7.7354399 -0.0501,-4.06594999 -1.12484,-8.05383 -0.97462,-12.14603 -1.07908,-3.3277101 1.59336,-9.2218301 -1.71565,-10.9564401 l -0.57413,-0.0439 z m -3.16363,4.41007 c 3.69254,1.73783 0.12298,8.0655501 1.32085,11.6060101 1.1213,4.84129 1.46107,9.82984 1.23611,14.7939299 -0.11404,-0.0123 -0.22808,-0.0216 -0.3421,-0.0357 -3.92189,0.32976 -7.78933,-0.48703 -11.6427,-0.9834 -4.61838,0.20917 -9.20812,0.67578 -13.84309,0.62941 -1.16908,-0.15294 -2.32944,-0.15253 -3.48661,-0.0858 0.0325,-0.34221 0.0676,-0.68445 0.10646,-1.02629 -0.5341,-7.4504399 0.9665,-14.9474299 -0.44597,-22.34954 0.42914,-2.73714 6.44558,-1.52323 9.19737,-2.00091 5.69443,0.63928 11.38578,-0.53276 17.09353,-0.52504 z m -62.41324,27.95178 c -0.1,0.0138 -0.37655,0.0952 -0.85525,0.28835 0.6979,-0.14682 1.02192,-0.31137 0.85525,-0.28835 z m 76.3664,3.15691 c 3.36502,0.0399 6.61772,1.02057 10.07948,0.8568 4.18706,0.88494 8.49055,-1.38928 12.52172,0.0806 3.92778,0.24957 2.91156,5.92978 3.27009,8.86716 -0.34028,6.02572 -0.88487,12.04511 -1.37718,18.0542 -1.31914,4.910916 -7.41655,0.445694 -10.96987,1.09399 -4.65125,0.269672 -9.35062,0.791731 -13.96297,-0.225826 -2.20511,-0.547906 -4.43604,-0.46573 -6.66781,-0.340548 0.21127,-2.773536 0.45725,-5.545836 0.6537,-8.319396 0.0316,-4.61615 0.8263,-9.20913 0.38396,-13.83998 -0.0112,-2.03433 -0.0635,-4.06675 -0.13953,-6.09782 0.93048,0.0224 1.86177,0.0865 2.79414,0.2217 1.15852,-0.27308 2.2926,-0.36418 3.41427,-0.35089 z m -22.14077,0.23513 c 1.71902,9.1e-4 3.43896,0.0555 5.16041,0.20051 1.77015,0.0856 3.53228,-0.008 5.29218,-0.11524 0.26412,7.04737 0.24763,14.10983 -0.55655,21.12894 -0.11479,2.33572 -0.27713,4.66944 -0.44132,7.002675 -0.56175,-0.05198 -1.12219,-0.130984 -1.68103,-0.24908 -5.71474,0.827433 -11.48487,0.578582 -17.18242,-0.186035 -3.4276,0.07691 -6.86077,-0.0354 -10.28826,-0.16485 -0.0128,-0.63756 -0.0272,-1.27503 -0.0506,-1.91254 0.73089,-5.45234 -0.57924,-10.90769 0.23099,-16.35715 0.35783,-2.83526 0.46321,-5.685 0.57774,-8.53384 3.46413,0.27053 6.93505,0.31221 10.34046,-0.54106 2.86983,-0.12647 5.73341,-0.27384 8.59844,-0.27233 z m -25.13645,0.22428 c 0.29309,0.0262 0.58781,0.057 0.8816,0.0853 -0.13785,3.2253 -0.24748,6.45211 -0.14728,9.68468 -0.18116,5.82603 -0.34808,11.65237 -0.19585,17.47697 -6.63544,0.0611 -13.1459,1.997498 -19.77295,2.304256 -3.01962,0.230371 -7.40935,-1.793638 -9.06043,-1.952852 1.05993,-4.916134 0.27453,-10.111234 0.59376,-15.142234 0.49975,-3.91499 -1.18753,-7.68752 -1.01958,-11.53934 4.28791,-1.25881 9.22679,-0.17711 14.00277,-0.3204 4.77598,-0.14329 9.90938,0.0461 14.71796,-0.59634 z m 34.16122,34.52554 c -0.0679,1.192959 -0.12853,2.386184 -0.17156,3.580143 0.43933,5.476599 1.61781,10.916335 1.10535,16.440857 -0.44469,2.794116 -1.09686,6.862098 -1.89445,8.711612 -3.65189,-0.546197 -7.21891,1.28379 -10.91097,0.297657 -4.17095,-0.729933 -8.36046,1.174723 -12.45608,-0.163299 -2.16248,-1.22533 -6.13628,2.193449 -4.84622,-1.827794 0.42712,-5.73863 1.15879,-11.489406 0.55811,-17.252694 -0.12561,-2.921347 -0.11774,-5.843797 -0.0971,-8.766389 0.002,-2.43e-4 0.005,-2.75e-4 0.007,-5.17e-4 3.83474,0.136244 7.64999,0.36194 11.47579,-0.207223 5.76492,0.314411 11.49578,-0.485139 17.22995,-0.812353 z m 5.53093,33.873385 c 0.45473,0.585409 1.03064,0.807897 0,0 z m 0.5948,0.622183 c -0.46907,0.06152 0.35973,0.193477 0,0 z" />
      <path
         style="fill:#ffffff;fill-opacity:1;stroke:none;stroke-width:0.264583px;stroke-linecap:butt;stroke-linejoin:miter;stroke-opacity:1"
         d="m -137.20601,85.712832 c -0.46907,0.06152 0.35973,0.193477 0,0 z"
         id="path34910" />
      <path
         style="fill:#ffffff;fill-opacity:1;stroke:none;stroke-width:0.264583px;stroke-linecap:butt;stroke-linejoin:miter;stroke-opacity:1"
         d="m -137.80081,85.090649 c 0.45473,0.585409 1.03064,0.807897 0,0 z"
         id="path34908" />
      <path
         style="fill:#ffffff;fill-opacity:1;stroke:none;stroke-width:0.264583px;stroke-linecap:butt;stroke-linejoin:miter;stroke-opacity:1"
         d="m -206.58214,13.075404 c -0.1,0.0138 -0.37655,0.0952 -0.85525,0.28835 0.6979,-0.14682 1.02192,-0.31137 0.85525,-0.28835 z"
         id="path34898" />
      <path
         id="rect1130"
         style="fill:#ffffff;stroke-width:7.55906;paint-order:markers fill stroke;stop-color:#000000"
         d="m -424.6875,-134.06055 -447.01172,392.86719 7.56055,8.60156 447.01172,-392.86718 z m 18.60156,21.25196 -445.78125,391.78515 29.85352,33.9668 445.78125,-391.783204 z m 62.00391,67.861324 -443.63477,389.900386 9.4668,10.77149 443.63477,-389.898438 z"
         transform="scale(0.26458333)" />
      <path
         id="path1249"
         style="fill:#ffaaaa;fill-opacity:1;stroke:none;stroke-width:0.264583px;stroke-linecap:butt;stroke-linejoin:miter;stroke-opacity:1"
         d="m -394.42188,-62.054688 -115.08203,8.789063 c -0.16,2.167086 -0.31305,4.401181 -0.47656,6.34375 -0.50038,5.944899 -0.31794,10.789203 -0.002,11.763672 a 12.616938,12.616938 0 0 1 0.60742,4.353515 c -0.47024,12.809986 3.36954,27.4615924 3.66797,44.683594 0.37985,5.518173 0.70325,11.070105 1.05078,16.609375 5.94981,-0.391605 12.09544,-0.714844 18.60742,-0.5625 a 12.616938,12.616938 0 0 1 1.44531,0.115235 c 15.30031,2.130255 30.56538,3.438195 45.6543,3.304687 a 12.616938,12.616938 0 0 1 1.31445,0.05664 c 11.76039,1.125901 25.53254,-1.459699 41.25586,-0.802735 z m -111.28515,75.933594 c -0.002,-0.03567 -0.003,-0.07176 -0.006,-0.107422 l 0.0293,0.710938 c -0.003,-0.205015 -0.0199,-0.399228 -0.0234,-0.603516 z m -48.10352,-58.300781 c -18.25602,0.484233 -38.47576,4.040122 -60.51562,1.847656 -7.55641,0.942577 -14.8985,0.25814 -20.0625,0.525391 -0.24,0.01134 -0.25816,0.05293 -0.48633,0.07031 3.09517,24.674231 0.15083,47.8160153 0.55078,68.945313 16.45251,0.146268 33.47986,-1.552585 51.33594,-2.361328 h 0.002 c 0.76381,-0.03402 1.53522,-0.0037 2.30469,0.0957 10.88149,1.401751 20.94773,3.035198 30.32617,3.523437 -0.15307,-13.372119 -1.43074,-26.588162 -4.38867,-39.359375 0.004,-0.01512 0.008,-0.02628 0.0117,-0.04101 -3.4687,-11.74526 -0.0525,-22.41495 0.78711,-29.111328 0.26381,-2.103874 0.1495,-2.81042 0.13476,-4.134766 z m 59.63672,117.318359 c -3.40649,-0.04044 -6.53278,0.232435 -9.66015,0.966797 0.0831,2.956233 0.18309,5.88884 0.20312,8.910157 l -0.0215,-0.439454 c 0.008,0.102804 0.003,0.197978 0.0117,0.300782 l 0.006,0.158203 h -0.002 c 1.69652,19.406851 -1.33399,37.041751 -1.4414,52.708981 -0.002,0.29178 -0.0142,0.56956 -0.0293,0.83008 -6.4e-4,0.008 -9.3e-4,0.0159 -0.002,0.0234 -0.40883,5.77187 -0.88312,11.43884 -1.3457,17.11523 4.3426,0.14703 8.83283,0.52817 13.59961,1.67578 0.0189,-0.008 0.0338,-0.012 0.0527,-0.0195 14.5988,3.22073 31.11283,1.60912 49.13085,0.56446 l 0.008,0.004 c 11.952,-1.60535 21.88118,3.1399 27.24414,4.19922 0.83191,0.16441 1.35277,0.17359 1.99804,0.23633 1.77105,-21.41643 3.64915,-42.70984 4.85157,-63.84961 -0.6423,-7.119874 -0.33562,-14.18256 -0.95508,-18.181641 -0.12775,-0.824239 -0.37878,-1.459937 -0.5918,-2.037109 -0.6847,-0.133417 -1.3859,-0.190141 -2.04297,-0.429688 -4.03532,-1.471407 -9.55617,-1.277345 -17.15234,-0.287109 -7.15,0.932183 -16.23703,2.473175 -26.41602,0.748047 -15.18421,0.446362 -27.67406,-3.081499 -37.44531,-3.197266 z m -83.52929,0.888672 c -10.1102,-0.0038 -20.48393,0.514643 -31.11329,0.986328 -9.48283,2.172095 -18.79033,2.775178 -27.80273,2.646485 -0.33373,6.53983 -0.75581,13.172244 -1.61524,19.99414 -0.0151,0.118678 -0.0262,0.217569 -0.0391,0.298829 -9.8e-4,0.01134 -0.003,0.02186 -0.004,0.0332 -2.27305,15.287889 1.24623,33.536959 -0.20704,54.156249 8.40598,0.24756 16.74472,0.41603 24.92774,0.23242 h 0.008 c 0.6864,-0.0151 1.37692,0.0226 2.06445,0.11524 19.28089,2.58754 38.39299,3.35195 57.03321,1.14062 0.3069,-4.49692 0.62902,-8.99885 0.8457,-13.4082 6.8e-4,-0.004 9.7e-4,-0.006 0.002,-0.01 0.0151,-0.27401 0.034,-0.55781 0.0684,-0.85156 2.43307,-21.23645 2.80985,-42.821128 2.32422,-64.607421 -2.522,0.03401 -4.97895,0.142176 -7.625,0.01367 -0.008,-6.43e-4 -0.012,-9.33e-4 -0.0195,-0.002 -0.14286,-0.0076 -0.29595,-0.01796 -0.45703,-0.0293 h -0.006 c -6.04282,-0.508952 -12.16801,-0.706112 -18.38476,-0.708985 z m -105.42383,1.75586 c -15.59539,1.147086 -30.96813,0.924851 -44.80078,1.339843 -14.73975,0.442243 -28.13917,-1.13516 -38.82227,-0.691406 1.56053,8.998299 4.14528,19.803531 2.64258,33.015627 l 0.0117,0.0234 c -0.86344,13.6075 0.84812,29.53968 -0.75391,46.5039 1.37669,0.45676 2.75254,0.9272 4.16797,1.3457 5.76896,1.70574 12.3758,2.7734 14.26953,2.62891 l 0.0117,-0.004 c 0.0971,-0.008 0.22029,-0.0139 0.37109,-0.0215 h 0.0195 c 19.08102,-0.8832 39.69161,-6.01138 62.00586,-7.89453 -0.14702,-18.0689 0.20262,-36.03779 0.75586,-53.843751 -0.21656,-7.584113 -0.0882,-15.025814 0.125,-22.40039 z m 125.59961,130.669924 c -16.20821,1.30077 -32.96042,2.82379 -50.60352,1.98242 -10.66772,1.46398 -20.78293,1.39652 -30.58203,1.10742 0.0151,6.33244 0.019,12.65965 0.2832,18.84375 l -0.008,-0.0801 h -0.004 c 2.04019,20.39698 0.11265,39.74174 -1.45117,58.25196 2.70157,0.0937 5.65434,0.62309 8.70313,1.96484 4.61473,1.45096 10.30391,1.30665 17.69726,0.5332 7.48082,-0.7826 16.81404,-2.26808 27.33008,-0.42773 l 0.008,0.002 c 0.38499,0.0678 0.76779,0.15081 1.14453,0.25195 h -0.008 c 3.91174,1.04482 8.77166,0.70725 15.29883,-0.25195 3.57305,-0.52509 7.8307,-1.10381 12.39063,-1.41601 1.42835,-6.35768 2.95768,-14.49546 4.01171,-21.06446 1.60868,-18.07636 -2.46271,-37.79585 -4.20507,-59.51562 l -0.002,-0.008 c -0.004,-0.0579 -2.4e-4,-0.11593 -0.004,-0.17383 z m -73.66211,82.07031 c -0.0495,-0.0156 -0.10309,-0.0251 -0.15235,-0.041 l 0.59375,0.23243 c -0.1478,-0.0687 -0.29404,-0.12656 -0.4414,-0.19141 z m -135.875,-81.70508 c -2.59755,0.0506 -5.14883,0.19023 -7.68555,0.35938 l -3.54688,103.32812 94.11133,-3.41211 c 0.058,-0.93969 0.0414,-1.97692 0.10547,-2.88086 0.39082,-5.51553 0.87671,-10.52839 0.77735,-12.64648 a 12.616938,12.616938 0 0 1 -0.01,-0.29492 c -0.64982,-27.53856 1.25199,-54.29849 2.18164,-80.60547 -13.14339,-0.68671 -25.8412,-2.0868 -38.125,-2.86328 -16.76756,0.17993 -32.83212,-1.27585 -47.80859,-0.98438 z"
         transform="scale(0.26458333)" />
    </g>
    <g
       id="g11317"
       inkscape:export-filename="/home/sean/code/frame9-jekyll-theme/assets/img/LogoIcon.png"
       inkscape:export-xdpi="96"
       inkscape:export-ydpi="96">
      <path
         style="fill:#000000;fill-opacity:1;stroke:none;stroke-width:0.264583px;stroke-linecap:butt;stroke-linejoin:miter;stroke-opacity:1"
         d="m 8.2509137,59.684841 c 0,0 0.6694668,-16.144586 1.2328524,-24.647269 C 9.8197349,28.216269 9.5735171,21.368662 8.8653283,14.579645 9.0099801,13.019457 8.4627239,8.7090927 8.4627239,8.7090927 c 0,0 5.6651171,-0.4911767 8.5172251,-0.070202 8.186236,0.2800315 15.964597,1.4362053 24.16714,0.034855 4.214142,-0.7008338 8.840356,-0.3380807 13.130802,-0.2049677 1.66396,0.6478981 5.027801,0.3041856 5.027801,0.3041856 0,0 -0.882992,9.7837394 -1.014582,14.3115814 0.08096,10.129249 0.880825,20.27534 0.106686,30.375835 -0.241072,3.087417 0.03599,7.044654 0.03599,7.044654 0,0 -4.40767,-0.0255 -7.251917,-0.311466 -6.87554,-1.144999 -13.574377,-0.109036 -20.502317,-0.808217 -5.442156,-0.350816 -11.720462,0.08675 -17.163037,-0.03824 -2.2976,0.06785 -5.2655806,0.337734 -5.2655806,0.337734 z"
         id="path10223"
         sodipodi:nodetypes="cccccccccccccccc" />
      <path
         id="path10225"
         style="fill:#ffffff;fill-opacity:1;stroke:none;stroke-width:0.264584px;stroke-linecap:butt;stroke-linejoin:miter;stroke-opacity:1"
         d="M 47.489929,0.95189128 C 46.39936,1.0115617 45.318877,1.1054223 44.256617,1.2480251 c 0.729148,1.8560508 -0.758105,5.1335713 -0.07796,7.1438172 0.794271,3.4293207 1.034946,6.9629517 0.875589,10.4792577 -0.08077,-0.0087 -0.161565,-0.01527 -0.242325,-0.02526 -2.778066,0.233586 -5.517561,-0.344988 -8.247089,-0.696591 -3.271424,0.148165 -6.522554,0.478694 -9.805728,0.445848 -0.828117,-0.108336 -1.650056,-0.108026 -2.469734,-0.06077 0.02302,-0.242405 0.04788,-0.484833 0.07541,-0.726974 C 23.987314,12.541992 25.043492,7.2438502 24.05473,2.0123325 23.064239,1.9566601 22.070913,1.8942572 21.077285,1.8322361 c 0.235734,1.4895639 0.461576,3.06922 -0.08419,4.360745 0.110182,2.9261444 -0.390681,5.8143949 -0.501488,8.7321039 0.0077,1.315567 -0.02607,2.63032 -0.07394,3.944547 -0.475523,0.02557 -0.952552,0.035 -1.431253,0.01574 -3.632164,0.139913 -7.274667,0.854282 -10.9309631,0.631435 -1.7017806,0.180346 -3.6370856,0.03212 -5.4369306,0.08711 0.048154,1.047128 0.086907,2.094704 0.1160376,3.142532 2.1062515,-0.01543 4.3154448,0.272797 6.4779753,0.207917 3.3830568,-0.101503 7.0192968,0.03265 10.4254478,-0.422421 0.20761,0.01856 0.416373,0.04035 0.62448,0.0604 -0.09764,2.284637 -0.175308,4.570343 -0.104323,6.860129 -0.128332,4.126859 -0.246571,8.253938 -0.138731,12.379786 -4.700213,0.04328 -9.311883,1.414921 -14.0061448,1.632213 -1.158073,0.08835 -2.5809353,-0.287656 -3.8460788,-0.672433 -0.076187,1.407174 -0.150303,2.813431 -0.2240219,4.265206 2.9127203,-0.02955 5.8506243,0.232369 8.7529695,0.190714 3.156798,0.19882 6.308913,0.591674 9.47006,0.608373 -0.106422,5.781498 -0.638811,11.551927 -0.502219,17.340486 0.01565,0.333499 -0.0013,0.715317 -0.02928,1.117549 1.171419,-0.0179 2.337477,-0.02739 3.496868,-0.02855 0.01473,-0.05048 0.02176,-0.09034 0.03917,-0.144591 0.302549,-4.064951 0.820823,-8.138505 0.395332,-12.22092 -0.08897,-2.069334 -0.08343,-4.139445 -0.06882,-6.209659 0.0015,-1.75e-4 0.0033,-1.88e-4 0.0048,-3.75e-4 2.716331,0.0965 5.418855,0.25638 8.128854,-0.146787 4.083574,0.222715 8.143023,-0.343645 12.204816,-0.575429 h 3.75e-4 c -0.0481,0.84503 -0.09105,1.69025 -0.12153,2.535989 0.311199,3.879342 1.145981,7.73257 0.782981,11.645858 -0.274472,1.724588 -0.660701,4.132476 -1.129261,5.590671 1.431108,-0.01043 2.861743,-0.01032 4.293757,0.02087 0.05857,-0.38221 0.165678,-0.736708 0.370076,-1.027135 0.09782,-4.493292 0.788321,-9.03416 -0.191809,-13.483792 -0.09804,-1.798545 -0.08863,-3.593772 -0.02087,-5.387147 2.361162,0.07166 4.708397,0.38834 7.083052,0.415099 3.458555,0.27608 6.905765,-0.140697 10.346016,-0.308946 0.180964,0.03599 0.361039,0.06215 0.540656,0.0831 0.004,-1.316956 -0.0044,-2.634289 -0.0205,-3.951866 -1.092921,-0.284712 -2.186795,-0.565264 -3.062002,-0.405584 -3.294707,0.191023 -6.623499,0.560822 -9.890652,-0.159963 -1.561985,-0.388109 -3.142258,-0.329901 -4.723132,-0.241228 0.149659,-1.964631 0.323894,-3.928379 0.463051,-5.893025 0.02238,-3.269844 0.585306,-6.523275 0.271977,-9.803532 -0.0079,-1.441016 -0.04498,-2.880676 -0.09883,-4.319382 0.659106,0.01587 1.318785,0.06127 1.979229,0.157035 0.820636,-0.193435 1.623953,-0.257961 2.418488,-0.248547 2.383606,0.02826 4.687657,0.722916 7.13979,0.606909 1.655401,0.349872 3.335471,0.0086 4.994376,-0.185586 -0.01536,-0.912991 -0.02822,-1.825976 -0.03551,-2.738781 0.0045,-0.155364 0.01244,-0.333186 0.01831,-0.497826 -0.707584,0.0123 -1.41547,-0.0013 -2.12455,-0.06918 -2.978103,0.02635 -5.954369,-0.23109 -8.903416,-0.641684 -1.883315,-0.04406 -3.764418,0.161173 -5.643015,0.250744 -0.100271,-1.827231 -0.22002,-3.653513 -0.345962,-5.479395 C 48.191322,10.571622 47.430029,7.746814 47.536438,4.8481111 47.188514,3.7751709 47.386904,2.3288131 47.489945,0.9518828 Z M 37.443343,22.373093 c 1.217664,6.38e-4 2.43598,0.03931 3.655367,0.142028 1.253883,0.06063 2.502095,-0.0056 3.748709,-0.08163 0.18709,4.991994 0.175399,9.994679 -0.394233,14.966657 -0.08131,1.654504 -0.196303,3.307589 -0.312607,4.960333 -0.397914,-0.03682 -0.794904,-0.09278 -1.190758,-0.176436 -4.048027,0.586112 -8.135286,0.409838 -12.171137,-0.131777 -2.427937,0.05448 -4.859817,-0.02508 -7.287676,-0.116771 -0.0091,-0.451615 -0.0193,-0.903169 -0.03588,-1.354749 0.517718,-3.862156 -0.410301,-7.72644 0.163623,-11.586555 0.253469,-2.008354 0.328116,-4.026967 0.409244,-6.044939 2.453811,0.19163 4.912421,0.221159 7.324645,-0.383253 2.03284,-0.08958 4.061254,-0.193978 6.090695,-0.192908 z" />
      <path
         id="path10233"
         style="fill:#ffffff;stroke-width:1.99999;paint-order:markers fill stroke;stop-color:#000000"
         d="m 50.13061,8.3168014 c 0.187157,1.5246119 0.421812,3.1699126 0.454633,4.9724136 l 0.0055,0.133242 c -5.63e-4,-0.03842 -0.0038,-0.07482 -0.0044,-0.113106 0.07119,1.034201 0.1318,2.074729 0.196934,3.112883 0.262848,-0.0173 0.536134,-0.02795 0.803479,-0.04282 l 7.640912,-6.7155402 c 0.02983,-0.3387962 0.07796,-0.8909641 0.07796,-0.8909641 0,0 -3.363727,0.3437113 -5.027688,-0.3041867 C 52.921615,8.426642 51.530515,8.3639379 50.130653,8.3168095 Z m -8.731741,0.319195 c -0.08378,0.013059 -0.168379,0.023825 -0.251841,0.03771 -0.662276,0.1131403 -1.32131,0.207936 -1.978496,0.2895443 l -7.531463,6.6189023 c 1.141029,-0.07002 2.307594,-0.14118 3.484422,-0.204987 L 41.605323,9.6788766 C 41.538399,9.3307832 41.47816,8.980899 41.398869,8.6360021 Z m 0.700621,4.7978076 -2.615058,2.29879 c 0.945603,0.120703 1.85577,0.219664 2.734023,0.265386 -0.0099,-0.859677 -0.05533,-1.713567 -0.118965,-2.564176 z M 37.093032,24.53681 c -1.894821,-7.12e-4 -3.839032,0.09646 -5.831164,0.184856 -0.823412,0.188606 -1.638497,0.308577 -2.445574,0.386548 l -2.941206,2.58504 c -0.03811,0.42207 -0.07256,0.84226 -0.126653,1.271655 -0.0029,0.02224 -0.0049,0.04078 -0.0073,0.05601 -1.83e-4,0.0021 -5.62e-4,0.0041 -7.5e-4,0.0062 -0.424153,2.852728 0.226539,6.256319 -0.03661,10.10003 L 42.059199,24.752778 c -5.63e-4,-0.02666 -1.65e-4,-0.05313 -7.5e-4,-0.0798 -0.472668,0.0064 -0.933142,0.02666 -1.429057,0.0025 -0.0015,-1.2e-4 -0.0023,-1.57e-4 -0.0037,-3.75e-4 -0.02677,-0.0014 -0.05547,-0.0033 -0.08566,-0.0055 h -0.0011 c -1.132528,-0.09538 -2.280494,-0.132337 -3.445621,-0.132876 z m 18.337606,0.112373 -4.365871,3.836929 c 0.0026,1.287689 -0.06813,2.518152 -0.151909,3.71174 l 7.414694,-6.51641 c -0.0046,-0.246506 -0.01,-0.492927 -0.01391,-0.73942 -1.037455,-0.05048 -1.996542,-0.169545 -2.883004,-0.292839 z M 17.304043,28.178997 9.4826689,35.05267 c -0.060789,0.918106 -0.1229478,1.954833 -0.1852209,3.020638 l 7.966696,-7.00179 c 0.01722,-0.66848 0.02726,-1.340907 0.04795,-2.007048 -0.0085,-0.297696 -0.0046,-0.589995 -0.008,-0.885473 z m -0.117136,7.15004 -5.111878,4.492522 c 1.647847,-0.259071 3.337101,-0.517458 5.095406,-0.665843 -0.01043,-1.279518 0.0036,-2.553151 0.01648,-3.826679 z m 24.435619,1.455778 -3.281996,2.884468 c 1.042926,-0.03082 2.081282,-0.09133 3.11032,-0.213407 0.05752,-0.8428 0.117889,-1.686542 0.158498,-2.512928 1.28e-4,-7.5e-4 1.62e-4,-0.0011 3.75e-4,-0.0018 0.0029,-0.0503 0.0064,-0.102467 0.01282,-0.156303 z M 8.7015202,49.596543 c -0.085062,1.804256 -0.146727,3.190371 -0.2123089,4.659806 l 5.0258577,-4.417116 c -0.995138,-0.08382 -1.984157,-0.169467 -2.951456,-0.230611 -0.6266217,0.0068 -1.246683,3.75e-4 -1.8620928,-0.01207 z m 22.2085748,0.181195 c -1.470899,0.170206 -2.878907,0.187559 -4.257885,0.163989 l -0.98028,0.86168 c 0.0036,0.893361 0.0029,1.78907 0.0399,2.663009 l -0.0015,-0.01501 h -7.5e-4 c 0.02819,0.281848 0.04469,0.560365 0.06516,0.840083 z m -13.529547,8.312979 -1.453581,1.27751 c 0.470243,-7.5e-4 0.944589,-0.004 1.422101,-0.0092 0.0122,-0.421983 0.01636,-0.847983 0.03148,-1.26836 z" />
      <rect
         style="fill:none;fill-opacity:1;stroke:none;stroke-width:2;paint-order:markers fill stroke;stop-color:#000000"
         id="rect10858"
         width="67.73333"
         height="67.73333"
         x="0"
         y="0" />
    </g>
  </g>
</svg>
