<?xml version="1.0" encoding="UTF-8" standalone="no"?>
<svg
   width="256"
   height="256"
   viewBox="0 0 67.733332 67.733335"
   version="1.1"
   id="svg8"
   inkscape:version="1.1 (c68e22c387, 2021-05-23)"
   sodipodi:docname="src.svg"
   inkscape:export-filename="/home/sean/code/FramedPanesWebsite/assets/img/LogoIcon.png"
   inkscape:export-xdpi="96"
   inkscape:export-ydpi="96"
   xmlns:inkscape="http://www.inkscape.org/namespaces/inkscape"
   xmlns:sodipodi="http://sodipodi.sourceforge.net/DTD/sodipodi-0.dtd"
   xmlns="http://www.w3.org/2000/svg"
   xmlns:svg="http://www.w3.org/2000/svg"
   xmlns:rdf="http://www.w3.org/1999/02/22-rdf-syntax-ns#"
   xmlns:cc="http://creativecommons.org/ns#"
   xmlns:dc="http://purl.org/dc/elements/1.1/">
  <defs
     id="defs2" />
  <sodipodi:namedview
     id="base"
     pagecolor="#848484"
     bordercolor="#666666"
     borderopacity="1.0"
     inkscape:pageopacity="0"
     inkscape:pageshadow="2"
     inkscape:zoom="1.4142136"
     inkscape:cx="38.183766"
     inkscape:cy="33.234019"
     inkscape:document-units="px"
     inkscape:current-layer="layer1"
     inkscape:document-rotation="0"
     showgrid="false"
     inkscape:showpageshadow="false"
     inkscape:pagecheckerboard="true"
     inkscape:snap-global="false"
     inkscape:window-width="1920"
     inkscape:window-height="1043"
     inkscape:window-x="0"
     inkscape:window-y="0"
     inkscape:window-maximized="1"
     units="px"
     showborder="true"
     inkscape:snap-page="true" />
  <metadata
     id="metadata5">
    <rdf:RDF>
      <cc:Work
         rdf:about="">
        <dc:format>image/svg+xml</dc:format>
        <dc:type
           rdf:resource="http://purl.org/dc/dcmitype/StillImage" />
      </cc:Work>
    </rdf:RDF>
  </metadata>
  <g
     inkscape:label="Layer 1"
     inkscape:groupmode="layer"
     id="layer1">
    <path
       style="fill:#ffffff;fill-opacity:1;stroke:none;stroke-width:0.264583px;stroke-linecap:butt;stroke-linejoin:miter;stroke-opacity:1"
       d="m -78.902201,-66.126617 c -0.46907,0.06152 0.35973,0.193477 0,0 z"
       id="path37727" />
    <path
       style="fill:#ffffff;fill-opacity:1;stroke:none;stroke-width:0.264583px;stroke-linecap:butt;stroke-linejoin:miter;stroke-opacity:1"
       d="m -79.497001,-66.7488 c 0.45473,0.585409 1.03064,0.807897 0,0 z"
       id="path37729" />
    <path
       style="fill:#ffffff;fill-opacity:1;stroke:none;stroke-width:0.264583px;stroke-linecap:butt;stroke-linejoin:miter;stroke-opacity:1"
       d="m -148.27833,-138.76404 c -0.1,0.0138 -0.37655,0.0952 -0.85525,0.28835 0.6979,-0.14682 1.02192,-0.31137 0.85525,-0.28835 z"
       id="path37731" />
    <g
       id="g10834"
       transform="translate(-22.470487,-86.717037)">
      <g
         id="g37990"
         transform="matrix(0.82713507,0,0,0.82713507,116.09341,131.18704)"
         style="stroke-width:1.20899">
        <path
           style="fill:#000000;fill-opacity:1;stroke:none;stroke-width:0.319879px;stroke-linecap:butt;stroke-linejoin:miter;stroke-opacity:1"
           d="m -135.26444,-82.697539 c 0,0 0.94511,-22.791871 1.74045,-34.795391 0.4743,-9.62987 0.12671,-19.29687 -0.87307,-28.88116 0.20421,-2.20257 -0.56836,-8.28766 -0.56836,-8.28766 0,0 7.99764,-0.69341 12.02406,-0.0991 11.55679,0.39533 22.53777,2.02754 34.117579,0.0492 5.94925,-0.98939 12.48023,-0.47728 18.5372,-0.28936 2.34907,0.91466 7.09792,0.42943 7.09792,0.42943 0,0 -1.24655,13.81204 -1.43232,20.20415 0.11429,14.29981 1.24349,28.62339 0.15062,42.882605 -0.34033,4.358614 0.0508,9.945181 0.0508,9.945181 0,0 -6.22246,-0.036 -10.23778,-0.439708 -9.70643,-1.616435 -19.16341,-0.153924 -28.943819,-1.140988 -7.68288,-0.495258 -16.54618,0.12246 -24.22966,-0.05398 -3.24359,0.09579 -7.43359,0.47679 -7.43359,0.47679 z"
           id="path37721"
           sodipodi:nodetypes="cccccccccccccccc" />
        <path
           id="path37723"
           style="fill:#ffffff;fill-opacity:1;stroke:none;stroke-width:0.999999px;stroke-linecap:butt;stroke-linejoin:miter;stroke-opacity:1"
           d="m 189.48828,3.6601562 c -5.31096,0.023695 -10.59426,0.2048555 -15.79297,0.6386719 -0.0666,2.3958453 0.11574,4.6522108 0.78321,6.6249999 3.50538,15.134743 4.56654,30.729409 3.86328,46.248047 -0.35651,-0.03845 -0.71192,-0.06725 -1.06836,-0.111328 C 165.0129,58.091436 152.92133,55.53807 140.875,53.986328 126.43711,54.640231 112.08936,56.100039 97.599609,55.955078 93.944855,55.47696 90.31674,55.476937 86.699219,55.685547 86.80082,54.615737 86.91172,53.545216 87.033203,52.476562 85.959729,37.502115 87.505584,22.469442 87.580078,7.4921875 82.471361,7.1834062 77.344896,6.8756055 72.203125,6.5625 c -0.150432,11.094956 -1.842206,22.097513 -2.263672,33.195312 0.03376,5.806035 -0.114905,11.608077 -0.326172,17.408204 -2.098636,0.112855 -4.203734,0.153391 -6.316406,0.06836 -16.029925,0.617483 -32.105692,3.770606 -48.242187,2.787109 -0.17145,0.01817 -0.348966,0.02826 -0.521485,0.04492 0.323948,5.041734 0.597277,10.086489 0.802735,15.134766 1.611446,0.02639 3.221362,0.04028 4.824218,-0.0078 14.930572,-0.44795 30.979233,0.143149 46.011719,-1.865234 0.916252,0.08191 1.837419,0.179107 2.755859,0.267578 -0.430944,10.082868 -0.77418,20.169796 -0.460937,30.275387 -0.566339,18.21322 -2.227852,39.41626 -1.751953,57.625 -18.383979,0.16929 -35.569846,2.59129 -53.66211,3.8086 -0.291137,5.59731 -0.57828,11.26158 -0.853515,16.86914 4.848393,0.17209 9.691575,0.30352 14.509765,0.23437 13.932008,0.87745 27.841767,2.61184 41.792969,2.68555 -0.349369,18.97983 -1.734943,37.93329 -2.175781,56.91211 5.780157,-0.10789 11.552031,-0.2075 17.324219,-0.26172 0.645302,-9.95087 0.897032,-19.91402 -0.142579,-29.88867 -0.392679,-9.13266 -0.369211,-18.26775 -0.304687,-27.4043 0.0063,-7.6e-4 0.01718,-0.001 0.02344,-0.002 11.988087,0.42592 23.914858,1.13087 35.874998,-0.64844 18.02218,0.98291 35.93724,-1.51614 53.86328,-2.53906 -0.21226,3.72939 -0.40063,7.46083 -0.53515,11.19336 1.36358,16.99814 4.99815,33.88226 3.48242,51.02539 5.49328,0.0733 10.99164,0.25511 16.50391,0.64453 0.70768,-13.2411 1.09858,-26.48573 -1.7793,-39.55078 -0.43266,-7.93759 -0.39085,-15.85867 -0.0918,-23.77344 10.42062,0.31625 20.77962,1.71393 31.25977,1.83203 7.72727,0.61683 15.44236,0.44664 23.14648,0.0352 0.11278,-6.36134 0.14331,-12.72585 0.10352,-19.0918 -11.23524,1.50488 -22.81139,3.49096 -33.59766,1.11133 -6.89357,-1.71287 -13.86683,-1.45579 -20.84375,-1.06445 0.66047,-8.67056 2.5675,-20.3274 3.18164,-28.99805 0.0988,-14.43091 2.58401,-28.78876 1.20117,-43.265625 -0.035,-6.359681 -0.19786,-12.71301 -0.43554,-19.0625 2.90884,0.07003 5.81962,0.2707 8.73437,0.693359 3.62174,-0.853697 7.16729,-1.139203 10.67383,-1.097656 9.72354,0.115295 19.15335,2.708375 29.07031,2.701172 -0.006,-0.569657 -0.0169,-1.139349 -0.0215,-1.708984 0.1146,-3.943176 0.37634,-8.873278 0.68554,-14.06836 -8.3389,-0.457682 -16.6571,-1.332859 -24.92773,-2.484375 -8.3117,-0.194448 -16.61537,0.710164 -24.90625,1.105469 -0.44232,-8.064168 -0.96956,-16.123412 -1.52539,-24.181641 -0.12227,-9.923035 -2.17481,-19.698871 -2.85547,-29.5957028 z M 144.75195,72.626953 c 5.37397,0.0028 10.75125,0.173626 16.13282,0.626953 5.5338,0.267601 11.04315,-0.02412 16.54492,-0.359375 0.82568,22.031346 0.77377,44.109739 -1.74024,66.052739 -0.35885,7.30188 -2.00624,17.58676 -2.51953,24.88085 -1.75613,-0.16256 -3.50882,-0.41009 -5.25586,-0.77929 -17.8653,2.58669 -35.90329,1.80828 -53.71484,-0.58203 -10.7153,0.2404 -21.447161,-0.10899 -32.162111,-0.51368 -0.04001,-1.99312 1.053622,-6.97577 0.980469,-8.96874 2.284894,-17.045 -1.810268,-34.09878 0.722656,-51.13477 1.118641,-8.863533 1.4486,-17.773702 1.806641,-26.679688 10.829493,0.845725 21.680245,0.976069 32.326175,-1.691406 8.9716,-0.395368 17.9223,-0.856283 26.8789,-0.851563 z"
           transform="matrix(0.31987924,0,0,0.31987924,-140.35605,-158.60413)" />
        <path
           id="path37725"
           style="fill:#ffffff;fill-opacity:1;stroke:none;stroke-width:0.999998px;stroke-linecap:butt;stroke-linejoin:miter;stroke-opacity:1"
           d="m 159.74609,23.050781 c -0.61598,0.09072 -1.23393,0.175604 -1.8457,0.277344 -3.9636,0.677146 -7.90251,1.202047 -11.82227,1.603516 -5.30649,5.681995 -10.57451,11.399703 -15.92578,17.039062 2.87166,-0.172582 5.75984,-0.338279 8.6836,-0.470703 h 0.002 c 0.63177,-0.02812 1.26979,-0.0024 1.90625,0.08008 0.67181,0.08654 1.27902,0.17156 1.94336,0.259766 5.56964,-6.366884 11.27787,-12.61049 17.05859,-18.789063 z m -16.53906,59.126953 c -4.31811,-0.0017 -8.69936,0.115359 -13.13281,0.279297 -1.19633,1.218254 -2.38497,2.442687 -3.58399,3.658203 -10.58149,12.478896 -21.97483,24.165906 -33.773433,35.443356 0.34786,7.8248 1.039563,20.00702 0.406333,28.99137 6.95287,0.20476 12.95969,-0.93459 20.64266,-0.50085 7.68296,0.43374 0.44395,-1.71602 7.25428,-1.43071 9.76771,-10.73722 34.37748,-36.29658 43.96645,-47.12751 0.556,-11.162135 0.38713,-7.389612 0.13471,-18.713546 -2.08603,0.02812 -4.118,0.119983 -6.30664,0.01367 -0.007,-5.3e-4 -0.009,-0.0011 -0.0156,-0.002 -0.11817,-0.0066 -0.24567,-0.01409 -0.37891,-0.02344 h -0.006 C 153.41638,82.344645 148.35055,82.18009 143.209,82.177683 Z m -36.69141,2.552735 c -4.07111,0.386247 -8.090215,0.509511 -12.039058,0.453125 -0.21297,4.173359 -0.473724,8.392017 -0.90625,12.693359 4.246305,-4.209158 8.533828,-8.535686 12.945308,-13.146484 z m 119.94141,14.818359 c -7.46786,7.140212 -14.98473,14.239552 -22.5918,21.271482 -0.29881,4.26721 -0.55874,8.43941 -0.58593,12.40625 -0.002,0.24134 -0.0129,0.47006 -0.0254,0.68555 -5.4e-4,0.007 8.7e-4,0.0132 0,0.0195 -0.11263,1.59009 -0.23905,3.16002 -0.36133,4.73438 l 24,-23.19532 c -0.15966,-5.30752 -0.30487,-10.61476 -0.43555,-15.921872 z M 55.533203,116.52148 c -3.22624,3.01472 -6.464431,6.01577 -9.722656,8.99805 -4.774902,5.00346 -9.677531,9.87322 -14.638672,14.68164 -0.182964,3.12843 -0.364319,6.40273 -0.546875,9.74024 2.394136,-0.37342 4.688179,-0.71506 7.134766,-1.08399 3.331435,-3.03647 6.651137,-6.09759 9.941406,-9.21875 2.569966,-2.18083 5.085789,-4.34094 7.585937,-6.49805 0.03921,-5.55516 0.125581,-11.0941 0.246094,-16.61914 z m 91.861327,76.16602 c -6.48912,0.46708 -13.09871,0.82161 -19.85937,0.84961 -10.81024,10.34618 -21.63059,20.68303 -32.421879,31.04883 6.792629,-0.0123 13.484729,0.0905 19.892579,0.46679 z m -54.650389,1.58008 c 2.15e-4,0.0923 0.002,0.18504 0.002,0.27734 0.08521,-0.0904 0.170689,-0.18109 0.255859,-0.27148 -0.08495,-0.002 -0.172924,-0.003 -0.257812,-0.006 z"
           transform="matrix(0.31987924,0,0,0.31987924,-140.35605,-158.60413)"
           sodipodi:nodetypes="sccccccccsccccccccccccssccccccsccccccccccccccccccccccccc" />
      </g>
      <path
         style="fill:#ffffff;fill-opacity:1;stroke:none;stroke-width:0.264583px;stroke-linecap:butt;stroke-linejoin:miter;stroke-opacity:1"
         d="m 53.368026,5.7284716 8.178408,-0.212889 -0.100471,6.0868164 C 53.5564,13.184061 53.648411,13.421833 53.368026,5.7284716 Z"
         id="path38258"
         sodipodi:nodetypes="cccc" />
      <path
         style="fill:#ffffff;fill-opacity:1;stroke:none;stroke-width:0.264583px;stroke-linecap:butt;stroke-linejoin:miter;stroke-opacity:1"
         d="m 40.288099,41.038308 3.625886,-3.268321 -0.584059,3.134245 z"
         id="path47149"
         sodipodi:nodetypes="cccc" />
      <path
         style="fill:#ffffff;fill-opacity:1;stroke:none;stroke-width:0.264583px;stroke-linecap:butt;stroke-linejoin:miter;stroke-opacity:1"
         d="m 14.987138,51.150756 0.212889,8.178408 -6.0868161,-0.100471 C 7.5315489,51.33913 7.2937769,51.431141 14.987138,51.150756 Z"
         id="path51696"
         sodipodi:nodetypes="cccc" />
    </g>
    <g
       id="g10221"
       transform="translate(-108.90456,2.4288869)">
      <path
         style="fill:#000000;fill-opacity:1;stroke:none;stroke-width:0.264583px;stroke-linecap:butt;stroke-linejoin:miter;stroke-opacity:1"
         d="m -193.56825,69.14191 c 0,0 0.94511,-22.791867 1.74045,-34.795396 0.4743,-9.62987 0.12671,-19.29687 -0.87307,-28.8811599 0.20421,-2.20257 -0.56836,-8.28766 -0.56836,-8.28766 0,0 7.99764,-0.69341 12.02406,-0.0991 11.55679,0.39533 22.53777,2.02754001 34.11758,0.0492 5.94925,-0.98939 12.48023,-0.47728 18.5372,-0.28936 2.34907,0.91466 7.09792,0.42943 7.09792,0.42943 0,0 -1.24655,13.8120399 -1.43232,20.2041499 0.11429,14.29981 1.24349,28.623395 0.15062,42.88261 -0.34033,4.358614 0.0508,9.945181 0.0508,9.945181 0,0 -6.22246,-0.036 -10.23778,-0.439708 -9.70643,-1.616435 -19.16341,-0.153924 -28.94382,-1.140988 -7.68288,-0.495258 -16.54618,0.12246 -24.22966,-0.05398 -3.24359,0.09579 -7.43359,0.47679 -7.43359,0.47679 z"
         id="path17873"
         sodipodi:nodetypes="cccccccccccccccc" />
      <path
         id="path17256"
         style="fill:#ffffff;fill-opacity:1;stroke:none;stroke-width:0.264583px;stroke-linecap:butt;stroke-linejoin:miter;stroke-opacity:1"
         d="m -141.00527,-19.286446 c -5.03081,0.23239 -10.03356,0.3442 -15.05179,0.031 -6.46674,0.2278 -12.91605,0.84638 -19.36781,1.3255 -1.43242,2.6278 1.38705,7.90613 -0.15503,11.5553601 0.15555,4.13094 -0.55154,8.20839 -0.70797,12.32742 0.0108,1.85723 -0.0368,3.71331 -0.10438,5.5686499 -0.67131,0.0361 -1.34475,0.0494 -2.02055,0.0222 -5.12764,0.19752 -10.26989,1.20602 -15.43162,0.89142 -4.07501,0.43185 -9.11182,-0.49142 -12.52326,0.96376 -1.61261,0.62738 -6.70786,-1.1304 -5.1723,3.45561 -0.2143,8.01939 1.1662,15.99372 0.43099,24.01145 0.45567,3.558085 -0.59353,8.899757 0.43718,11.344531 6.72496,-1.635384 13.71035,-0.528076 20.55533,-0.626319 4.45656,0.28068 8.90651,0.835286 13.36921,0.858863 -0.15024,8.161937 -0.90183,16.308252 -0.709,24.48016 0.1624,3.461858 -2.04614,10.312061 3.73569,9.29504 4.42076,-0.577819 8.92021,0.202673 13.28446,-0.817523 6.63321,-1.670608 13.37895,-0.01601 20.08249,-0.169498 4.38926,0.995355 1.13523,-4.948713 2.94556,-7.520987 0.1381,-6.343335 1.11291,-12.753832 -0.27078,-19.035531 -0.1384,-2.53907 -0.12516,-5.073452 -0.0295,-7.605221 3.33334,0.101161 6.64701,0.548234 9.99939,0.586011 4.88256,0.38975 9.74911,-0.198628 14.60583,-0.436149 4.40014,0.875179 8.50148,-1.593023 12.88138,-0.843876 4.06665,1.970162 0.483,-5.414839 1.2082,-7.632611 0.0503,-7.16731 -2.31641,-14.23474 -1.07229,-21.41782 -0.14915,-3.41176 3.84819,-10.86689 -2.51251,-9.15758 -4.50341,-0.65412 -8.99425,0.4254 -13.5108,-0.007 -4.20429,0.0372 -8.40599,-0.32624 -12.56926,-0.90589 -2.65874,-0.0622 -5.31436,0.22753 -7.96644,0.35398 -0.14149,-2.5795599 -0.31054,-5.1577799 -0.48834,-7.7354399 -0.0501,-4.06594999 -1.12484,-8.05383 -0.97462,-12.14603 -1.07908,-3.3277101 1.59336,-9.2218301 -1.71565,-10.9564401 l -0.57413,-0.0439 z m -3.16363,4.41007 c 3.69254,1.73783 0.12298,8.0655501 1.32085,11.6060101 1.1213,4.84129 1.46107,9.82984 1.23611,14.7939299 -0.11404,-0.0123 -0.22808,-0.0216 -0.3421,-0.0357 -3.92189,0.32976 -7.78933,-0.48703 -11.6427,-0.9834 -4.61838,0.20917 -9.20812,0.67578 -13.84309,0.62941 -1.16908,-0.15294 -2.32944,-0.15253 -3.48661,-0.0858 0.0325,-0.34221 0.0676,-0.68445 0.10646,-1.02629 -0.5341,-7.4504399 0.9665,-14.9474299 -0.44597,-22.34954 0.42914,-2.73714 6.44558,-1.52323 9.19737,-2.00091 5.69443,0.63928 11.38578,-0.53276 17.09353,-0.52504 z m -62.41324,27.95178 c -0.1,0.0138 -0.37655,0.0952 -0.85525,0.28835 0.6979,-0.14682 1.02192,-0.31137 0.85525,-0.28835 z m 76.3664,3.15691 c 3.36502,0.0399 6.61772,1.02057 10.07948,0.8568 4.18706,0.88494 8.49055,-1.38928 12.52172,0.0806 3.92778,0.24957 2.91156,5.92978 3.27009,8.86716 -0.34028,6.02572 -0.88487,12.04511 -1.37718,18.0542 -1.31914,4.910916 -7.41655,0.445694 -10.96987,1.09399 -4.65125,0.269672 -9.35062,0.791731 -13.96297,-0.225826 -2.20511,-0.547906 -4.43604,-0.46573 -6.66781,-0.340548 0.21127,-2.773536 0.45725,-5.545836 0.6537,-8.319396 0.0316,-4.61615 0.8263,-9.20913 0.38396,-13.83998 -0.0112,-2.03433 -0.0635,-4.06675 -0.13953,-6.09782 0.93048,0.0224 1.86177,0.0865 2.79414,0.2217 1.15852,-0.27308 2.2926,-0.36418 3.41427,-0.35089 z m -22.14077,0.23513 c 1.71902,9.1e-4 3.43896,0.0555 5.16041,0.20051 1.77015,0.0856 3.53228,-0.008 5.29218,-0.11524 0.26412,7.04737 0.24763,14.10983 -0.55655,21.12894 -0.11479,2.33572 -0.27713,4.66944 -0.44132,7.002675 -0.56175,-0.05198 -1.12219,-0.130984 -1.68103,-0.24908 -5.71474,0.827433 -11.48487,0.578582 -17.18242,-0.186035 -3.4276,0.07691 -6.86077,-0.0354 -10.28826,-0.16485 -0.0128,-0.63756 -0.0272,-1.27503 -0.0506,-1.91254 0.73089,-5.45234 -0.57924,-10.90769 0.23099,-16.35715 0.35783,-2.83526 0.46321,-5.685 0.57774,-8.53384 3.46413,0.27053 6.93505,0.31221 10.34046,-0.54106 2.86983,-0.12647 5.73341,-0.27384 8.59844,-0.27233 z m -25.13645,0.22428 c 0.29309,0.0262 0.58781,0.057 0.8816,0.0853 -0.13785,3.2253 -0.24748,6.45211 -0.14728,9.68468 -0.18116,5.82603 -0.34808,11.65237 -0.19585,17.47697 -6.63544,0.0611 -13.1459,1.997498 -19.77295,2.304256 -3.01962,0.230371 -7.40935,-1.793638 -9.06043,-1.952852 1.05993,-4.916134 0.27453,-10.111234 0.59376,-15.142234 0.49975,-3.91499 -1.18753,-7.68752 -1.01958,-11.53934 4.28791,-1.25881 9.22679,-0.17711 14.00277,-0.3204 4.77598,-0.14329 9.90938,0.0461 14.71796,-0.59634 z m 34.16122,34.52554 c -0.0679,1.192959 -0.12853,2.386184 -0.17156,3.580143 0.43933,5.476599 1.61781,10.916335 1.10535,16.440857 -0.44469,2.794116 -1.09686,6.862098 -1.89445,8.711612 -3.65189,-0.546197 -7.21891,1.28379 -10.91097,0.297657 -4.17095,-0.729933 -8.36046,1.174723 -12.45608,-0.163299 -2.16248,-1.22533 -6.13628,2.193449 -4.84622,-1.827794 0.42712,-5.73863 1.15879,-11.489406 0.55811,-17.252694 -0.12561,-2.921347 -0.11774,-5.843797 -0.0971,-8.766389 0.002,-2.43e-4 0.005,-2.75e-4 0.007,-5.17e-4 3.83474,0.136244 7.64999,0.36194 11.47579,-0.207223 5.76492,0.314411 11.49578,-0.485139 17.22995,-0.812353 z m 5.53093,33.873385 c 0.45473,0.585409 1.03064,0.807897 0,0 z m 0.5948,0.622183 c -0.46907,0.06152 0.35973,0.193477 0,0 z" />
      <path
         style="fill:#ffffff;fill-opacity:1;stroke:none;stroke-width:0.264583px;stroke-linecap:butt;stroke-linejoin:miter;stroke-opacity:1"
         d="m -137.20601,85.712832 c -0.46907,0.06152 0.35973,0.193477 0,0 z"
         id="path34910" />
      <path
         style="fill:#ffffff;fill-opacity:1;stroke:none;stroke-width:0.264583px;stroke-linecap:butt;stroke-linejoin:miter;stroke-opacity:1"
         d="m -137.80081,85.090649 c 0.45473,0.585409 1.03064,0.807897 0,0 z"
         id="path34908" />
      <path
         style="fill:#ffffff;fill-opacity:1;stroke:none;stroke-width:0.264583px;stroke-linecap:butt;stroke-linejoin:miter;stroke-opacity:1"
         d="m -206.58214,13.075404 c -0.1,0.0138 -0.37655,0.0952 -0.85525,0.28835 0.6979,-0.14682 1.02192,-0.31137 0.85525,-0.28835 z"
         id="path34898" />
      <path
         id="rect1130"
         style="fill:#ffffff;stroke-width:7.55906;paint-order:markers fill stroke;stop-color:#000000"
         d="m -424.6875,-134.06055 -447.01172,392.86719 7.56055,8.60156 447.01172,-392.86718 z m 18.60156,21.25196 -445.78125,391.78515 29.85352,33.9668 445.78125,-391.783204 z m 62.00391,67.861324 -443.63477,389.900386 9.4668,10.77149 443.63477,-389.898438 z"
         transform="scale(0.26458333)" />
      <path
         id="path1249"
         style="fill:#ffaaaa;fill-opacity:1;stroke:none;stroke-width:0.264583px;stroke-linecap:butt;stroke-linejoin:miter;stroke-opacity:1"
         d="m -394.42188,-62.054688 -115.08203,8.789063 c -0.16,2.167086 -0.31305,4.401181 -0.47656,6.34375 -0.50038,5.944899 -0.31794,10.789203 -0.002,11.763672 a 12.616938,12.616938 0 0 1 0.60742,4.353515 c -0.47024,12.809986 3.36954,27.4615924 3.66797,44.683594 0.37985,5.518173 0.70325,11.070105 1.05078,16.609375 5.94981,-0.391605 12.09544,-0.714844 18.60742,-0.5625 a 12.616938,12.616938 0 0 1 1.44531,0.115235 c 15.30031,2.130255 30.56538,3.438195 45.6543,3.304687 a 12.616938,12.616938 0 0 1 1.31445,0.05664 c 11.76039,1.125901 25.53254,-1.459699 41.25586,-0.802735 z m -111.28515,75.933594 c -0.002,-0.03567 -0.003,-0.07176 -0.006,-0.107422 l 0.0293,0.710938 c -0.003,-0.205015 -0.0199,-0.399228 -0.0234,-0.603516 z m -48.10352,-58.300781 c -18.25602,0.484233 -38.47576,4.040122 -60.51562,1.847656 -7.55641,0.942577 -14.8985,0.25814 -20.0625,0.525391 -0.24,0.01134 -0.25816,0.05293 -0.48633,0.07031 3.09517,24.674231 0.15083,47.8160153 0.55078,68.945313 16.45251,0.146268 33.47986,-1.552585 51.33594,-2.361328 h 0.002 c 0.76381,-0.03402 1.53522,-0.0037 2.30469,0.0957 10.88149,1.401751 20.94773,3.035198 30.32617,3.523437 -0.15307,-13.372119 -1.43074,-26.588162 -4.38867,-39.359375 0.004,-0.01512 0.008,-0.02628 0.0117,-0.04101 -3.4687,-11.74526 -0.0525,-22.41495 0.78711,-29.111328 0.26381,-2.103874 0.1495,-2.81042 0.13476,-4.134766 z m 59.63672,117.318359 c -3.40649,-0.04044 -6.53278,0.232435 -9.66015,0.966797 0.0831,2.956233 0.18309,5.88884 0.20312,8.910157 l -0.0215,-0.439454 c 0.008,0.102804 0.003,0.197978 0.0117,0.300782 l 0.006,0.158203 h -0.002 c 1.69652,19.406851 -1.33399,37.041751 -1.4414,52.708981 -0.002,0.29178 -0.0142,0.56956 -0.0293,0.83008 -6.4e-4,0.008 -9.3e-4,0.0159 -0.002,0.0234 -0.40883,5.77187 -0.88312,11.43884 -1.3457,17.11523 4.3426,0.14703 8.83283,0.52817 13.59961,1.67578 0.0189,-0.008 0.0338,-0.012 0.0527,-0.0195 14.5988,3.22073 31.11283,1.60912 49.13085,0.56446 l 0.008,0.004 c 11.952,-1.60535 21.88118,3.1399 27.24414,4.19922 0.83191,0.16441 1.35277,0.17359 1.99804,0.23633 1.77105,-21.41643 3.64915,-42.70984 4.85157,-63.84961 -0.6423,-7.119874 -0.33562,-14.18256 -0.95508,-18.181641 -0.12775,-0.824239 -0.37878,-1.459937 -0.5918,-2.037109 -0.6847,-0.133417 -1.3859,-0.190141 -2.04297,-0.429688 -4.03532,-1.471407 -9.55617,-1.277345 -17.15234,-0.287109 -7.15,0.932183 -16.23703,2.473175 -26.41602,0.748047 -15.18421,0.446362 -27.67406,-3.081499 -37.44531,-3.197266 z m -83.52929,0.888672 c -10.1102,-0.0038 -20.48393,0.514643 -31.11329,0.986328 -9.48283,2.172095 -18.79033,2.775178 -27.80273,2.646485 -0.33373,6.53983 -0.75581,13.172244 -1.61524,19.99414 -0.0151,0.118678 -0.0262,0.217569 -0.0391,0.298829 -9.8e-4,0.01134 -0.003,0.02186 -0.004,0.0332 -2.27305,15.287889 1.24623,33.536959 -0.20704,54.156249 8.40598,0.24756 16.74472,0.41603 24.92774,0.23242 h 0.008 c 0.6864,-0.0151 1.37692,0.0226 2.06445,0.11524 19.28089,2.58754 38.39299,3.35195 57.03321,1.14062 0.3069,-4.49692 0.62902,-8.99885 0.8457,-13.4082 6.8e-4,-0.004 9.7e-4,-0.006 0.002,-0.01 0.0151,-0.27401 0.034,-0.55781 0.0684,-0.85156 2.43307,-21.23645 2.80985,-42.821128 2.32422,-64.607421 -2.522,0.03401 -4.97895,0.142176 -7.625,0.01367 -0.008,-6.43e-4 -0.012,-9.33e-4 -0.0195,-0.002 -0.14286,-0.0076 -0.29595,-0.01796 -0.45703,-0.0293 h -0.006 c -6.04282,-0.508952 -12.16801,-0.706112 -18.38476,-0.708985 z m -105.42383,1.75586 c -15.59539,1.147086 -30.96813,0.924851 -44.80078,1.339843 -14.73975,0.442243 -28.13917,-1.13516 -38.82227,-0.691406 1.56053,8.998299 4.14528,19.803531 2.64258,33.015627 l 0.0117,0.0234 c -0.86344,13.6075 0.84812,29.53968 -0.75391,46.5039 1.37669,0.45676 2.75254,0.9272 4.16797,1.3457 5.76896,1.70574 12.3758,2.7734 14.26953,2.62891 l 0.0117,-0.004 c 0.0971,-0.008 0.22029,-0.0139 0.37109,-0.0215 h 0.0195 c 19.08102,-0.8832 39.69161,-6.01138 62.00586,-7.89453 -0.14702,-18.0689 0.20262,-36.03779 0.75586,-53.843751 -0.21656,-7.584113 -0.0882,-15.025814 0.125,-22.40039 z m 125.59961,130.669924 c -16.20821,1.30077 -32.96042,2.82379 -50.60352,1.98242 -10.66772,1.46398 -20.78293,1.39652 -30.58203,1.10742 0.0151,6.33244 0.019,12.65965 0.2832,18.84375 l -0.008,-0.0801 h -0.004 c 2.04019,20.39698 0.11265,39.74174 -1.45117,58.25196 2.70157,0.0937 5.65434,0.62309 8.70313,1.96484 4.61473,1.45096 10.30391,1.30665 17.69726,0.5332 7.48082,-0.7826 16.81404,-2.26808 27.33008,-0.42773 l 0.008,0.002 c 0.38499,0.0678 0.76779,0.15081 1.14453,0.25195 h -0.008 c 3.91174,1.04482 8.77166,0.70725 15.29883,-0.25195 3.57305,-0.52509 7.8307,-1.10381 12.39063,-1.41601 1.42835,-6.35768 2.95768,-14.49546 4.01171,-21.06446 1.60868,-18.07636 -2.46271,-37.79585 -4.20507,-59.51562 l -0.002,-0.008 c -0.004,-0.0579 -2.4e-4,-0.11593 -0.004,-0.17383 z m -73.66211,82.07031 c -0.0495,-0.0156 -0.10309,-0.0251 -0.15235,-0.041 l 0.59375,0.23243 c -0.1478,-0.0687 -0.29404,-0.12656 -0.4414,-0.19141 z m -135.875,-81.70508 c -2.59755,0.0506 -5.14883,0.19023 -7.68555,0.35938 l -3.54688,103.32812 94.11133,-3.41211 c 0.058,-0.93969 0.0414,-1.97692 0.10547,-2.88086 0.39082,-5.51553 0.87671,-10.52839 0.77735,-12.64648 a 12.616938,12.616938 0 0 1 -0.01,-0.29492 c -0.64982,-27.53856 1.25199,-54.29849 2.18164,-80.60547 -13.14339,-0.68671 -25.8412,-2.0868 -38.125,-2.86328 -16.76756,0.17993 -32.83212,-1.27585 -47.80859,-0.98438 z"
         transform="scale(0.26458333)" />
    </g>
    <g
       id="g11079"
       transform="matrix(1.1465376,0,0,1.1465376,-22.541775,-3.9862934)"
       style="stroke-width:0.872191">
      <path
         style="fill:#000000;fill-opacity:1;stroke:none;stroke-width:0.230767px;stroke-linecap:butt;stroke-linejoin:miter;stroke-opacity:1"
         d="m 26.857112,55.533403 c 0,0 0.583903,-14.081166 1.075283,-21.497131 0.293029,-5.949481 0.07828,-11.921903 -0.539396,-17.843224 0.126164,-1.360782 -0.351148,-5.120244 -0.351148,-5.120244 0,0 4.941065,-0.4284 7.428649,-0.06123 7.139963,0.244241 13.924181,1.252646 21.078366,0.0304 3.675538,-0.611261 7.710481,-0.294871 11.45257,-0.178771 1.451292,0.565091 4.385204,0.265308 4.385204,0.265308 0,0 -0.770138,8.533291 -0.884909,12.482435 0.07061,8.834642 0.768247,17.683973 0.09305,26.493536 -0.210261,2.692818 0.03139,6.144285 0.03139,6.144285 0,0 -3.844331,-0.02224 -6.325058,-0.271658 -5.996785,-0.998658 -11.839452,-0.0951 -17.88194,-0.70492 -4.746601,-0.305978 -10.222484,0.07566 -14.96945,-0.03335 -2.003946,0.05918 -4.592593,0.294568 -4.592593,0.294568 z"
         id="path10223"
         sodipodi:nodetypes="cccccccccccccccc" />
      <path
         id="path10225"
         style="fill:#ffffff;fill-opacity:1;stroke:none;stroke-width:0.230768px;stroke-linecap:butt;stroke-linejoin:miter;stroke-opacity:1"
         d="m 61.081036,4.3070412 c -0.951185,0.052044 -1.893573,0.1339084 -2.820067,0.2582853 0.635957,1.6188312 -0.661212,4.4774557 -0.068,6.2307745 0.692756,2.991023 0.902671,6.073025 0.763681,9.139916 -0.07045,-0.0076 -0.140916,-0.01332 -0.211354,-0.02203 -2.423004,0.203731 -4.812368,-0.300896 -7.193038,-0.607561 -2.853307,0.129228 -5.688914,0.417513 -8.55247,0.388865 -0.722276,-0.09449 -1.439164,-0.09422 -2.15408,-0.053 0.02008,-0.211423 0.04176,-0.422867 0.06577,-0.63406 C 40.582262,14.415825 41.503451,9.7948324 40.641061,5.2319487 39.777164,5.1833917 38.910794,5.1289645 38.04416,5.0748702 c 0.205605,1.2991845 0.402583,2.6769467 -0.07343,3.8034034 0.0961,2.5521574 -0.340748,5.0712644 -0.437393,7.6160644 0.0067,1.147426 -0.02274,2.294142 -0.06449,3.440399 -0.414747,0.0223 -0.830807,0.03053 -1.248326,0.01373 -3.167942,0.122031 -6.344901,0.745097 -9.53389,0.550732 -1.484278,0.157296 -3.172234,0.02801 -4.742043,0.07598 0.042,0.913296 0.0758,1.826982 0.101207,2.740889 1.837054,-0.01346 3.763893,0.237931 5.650033,0.181343 2.950672,-0.08853 6.122169,0.02848 9.092984,-0.368432 0.181075,0.01619 0.363157,0.03519 0.544666,0.05268 -0.08516,1.99264 -0.152902,3.986213 -0.09099,5.983344 -0.11193,3.59941 -0.215057,7.199012 -0.121,10.79754 -4.099484,0.03775 -8.121742,1.234082 -12.216036,1.423602 -1.010061,0.07706 -2.251069,-0.250891 -3.354516,-0.58649 -0.06645,1.227325 -0.131093,2.45385 -0.19539,3.720075 2.540449,-0.02577 5.102863,0.20267 7.634263,0.166339 2.753331,0.173409 5.502578,0.516053 8.259703,0.530618 -0.09282,5.042571 -0.557165,10.075489 -0.438031,15.124219 0.01365,0.290875 -0.0011,0.623893 -0.02554,0.974716 1.021702,-0.01561 2.038727,-0.02389 3.049938,-0.0249 0.01285,-0.04403 0.01898,-0.07879 0.03416,-0.126111 0.263881,-3.545414 0.715915,-7.098332 0.344805,-10.658979 -0.0776,-1.804855 -0.07277,-3.610387 -0.06002,-5.41601 0.0013,-1.52e-4 0.0029,-1.64e-4 0.0042,-3.27e-4 2.36916,0.08417 4.726278,0.223613 7.089915,-0.128026 3.561657,0.19425 7.102273,-0.299724 10.644933,-0.501884 h 3.27e-4 c -0.04195,0.737028 -0.07941,1.474221 -0.105997,2.211867 0.271425,3.383528 0.999514,6.74428 0.682909,10.157415 -0.239392,1.50417 -0.576258,3.604309 -0.984932,4.876134 1.2482,-0.0091 2.495987,-0.009 3.744977,0.0182 0.05108,-0.33336 0.144503,-0.64255 0.322777,-0.895858 0.08532,-3.91901 0.687567,-7.879515 -0.167294,-11.760445 -0.08551,-1.568675 -0.0773,-3.134456 -0.0182,-4.698622 2.059385,0.0625 4.106623,0.338707 6.177776,0.362046 3.016521,0.240794 6.023147,-0.122715 9.023704,-0.26946 0.157835,0.03139 0.314895,0.05421 0.471555,0.07248 0.0035,-1.148638 -0.0038,-2.297604 -0.01788,-3.446783 -0.953236,-0.248323 -1.907303,-0.493018 -2.670651,-0.353747 -2.873614,0.166609 -5.776957,0.489144 -8.626539,-0.139518 -1.36235,-0.338505 -2.74065,-0.287737 -4.119475,-0.210397 0.130532,-1.713534 0.282498,-3.426298 0.403869,-5.139845 0.01952,-2.851929 0.510499,-5.689543 0.237216,-8.550554 -0.0069,-1.256841 -0.03923,-2.5125 -0.0862,-3.767327 0.574866,0.01384 1.150233,0.05344 1.726266,0.136965 0.715752,-0.168713 1.416398,-0.224992 2.109384,-0.216781 2.07896,0.02465 4.088533,0.630521 6.227262,0.529341 1.443826,0.305155 2.909168,0.0075 4.356051,-0.161867 -0.0134,-0.796302 -0.02461,-1.5926 -0.03097,-2.38874 0.0039,-0.135507 0.01085,-0.290602 0.01597,-0.4342 -0.617149,0.01073 -1.234561,-0.0011 -1.853014,-0.06034 -2.597475,0.02298 -5.193348,-0.201554 -7.765481,-0.559671 -1.642611,-0.03843 -3.283292,0.140574 -4.921788,0.218697 -0.08747,-1.593697 -0.191914,-3.186564 -0.30176,-4.779082 C 61.692784,12.697286 61.028791,10.233513 61.1216,7.7052898 60.818144,6.7694808 60.991178,5.5079803 61.08105,4.3070338 Z M 52.318492,22.990425 c 1.062036,5.56e-4 2.12464,0.03429 3.188179,0.123875 1.093625,0.05288 2.182305,-0.0049 3.269591,-0.0712 0.163178,4.353973 0.152981,8.717271 -0.343847,13.053786 -0.07092,1.443044 -0.171214,2.88485 -0.272653,4.326359 -0.347057,-0.03211 -0.693308,-0.08092 -1.038569,-0.153886 -3.530653,0.511202 -7.095524,0.357457 -10.615558,-0.114935 -2.117625,0.04752 -4.23869,-0.02187 -6.356247,-0.101846 -0.0079,-0.393895 -0.01683,-0.787736 -0.03129,-1.1816 0.451549,-3.368539 -0.357861,-6.738933 0.142711,-10.105692 0.221073,-1.751668 0.28618,-3.512285 0.356939,-5.272342 2.140192,0.167138 4.28457,0.192893 6.388491,-0.33427 1.773025,-0.07813 3.54219,-0.169186 5.31225,-0.168253 z" />
      <path
         id="path10233"
         style="fill:#ffffff;stroke-width:1.74437;paint-order:markers fill stroke;stop-color:#000000"
         d="m 63.384214,10.730651 c 0.163237,1.329753 0.367901,2.76477 0.396527,4.336895 l 0.0048,0.116213 c -4.91e-4,-0.03351 -0.0033,-0.06526 -0.0038,-0.09865 0.06209,0.902021 0.114955,1.80956 0.171764,2.715029 0.229254,-0.01509 0.467611,-0.02438 0.700787,-0.03735 l 6.664336,-5.857235 c 0.02602,-0.295495 0.068,-0.777091 0.068,-0.777091 0,0 -2.933813,0.299782 -4.385105,-0.265309 -1.183019,-0.0367 -2.396324,-0.09139 -3.617271,-0.132495 z m -7.615747,0.278399 c -0.07307,0.01139 -0.146859,0.02078 -0.219654,0.03289 -0.577631,0.09868 -1.152435,0.18136 -1.725627,0.252538 l -6.568875,5.772949 c 0.995195,-0.06107 2.012663,-0.123136 3.039082,-0.178788 l 5.655141,-4.969998 c -0.05837,-0.303604 -0.11091,-0.60877 -0.180067,-0.909586 z m 0.611075,4.184606 -2.28083,2.004984 c 0.824746,0.105276 1.618586,0.191589 2.38459,0.231467 -0.0086,-0.749802 -0.04826,-1.494558 -0.10376,-2.236451 z M 52.012954,24.8776 c -1.652647,-6.21e-4 -3.34837,0.08413 -5.08589,0.161229 -0.718173,0.164501 -1.429083,0.269139 -2.133008,0.337144 l -2.565294,2.254649 c -0.03324,0.368126 -0.06329,0.734612 -0.110466,1.109127 -0.0025,0.0194 -0.0043,0.03557 -0.0064,0.04885 -1.6e-4,0.0018 -4.9e-4,0.0036 -6.54e-4,0.0054 -0.369943,2.488124 0.197585,5.456706 -0.03193,8.809157 L 56.344401,25.065965 c -4.91e-4,-0.02325 -1.44e-4,-0.04634 -6.54e-4,-0.0696 -0.412257,0.0056 -0.813879,0.02325 -1.246411,0.0022 -0.0013,-1.05e-4 -0.002,-1.37e-4 -0.0032,-3.27e-4 -0.02335,-0.0012 -0.04838,-0.0029 -0.07471,-0.0048 h -9.81e-4 c -0.987781,-0.08319 -1.989027,-0.115423 -3.00524,-0.115893 z m 15.993898,0.09801 -3.807874,3.346536 c 0.0023,1.123111 -0.05942,2.19631 -0.132494,3.237347 l 6.467031,-5.683555 c -0.004,-0.215001 -0.0087,-0.429927 -0.01213,-0.644916 -0.904859,-0.04403 -1.741366,-0.147876 -2.51453,-0.255412 z m -33.25368,3.078673 -6.821734,5.995157 c -0.05302,0.800764 -0.107234,1.704988 -0.161548,2.634574 l 6.948482,-6.1069 c 0.01502,-0.583042 0.02378,-1.169527 0.04182,-1.750529 -0.0074,-0.259648 -0.004,-0.514589 -0.007,-0.772302 z m -0.102165,6.236202 -4.458535,3.918338 c 1.437237,-0.225959 2.91059,-0.451322 4.444168,-0.580742 -0.0091,-1.115985 0.0031,-2.226836 0.01437,-3.337596 z m 21.312531,1.269717 -2.862528,2.515807 c 0.909631,-0.02688 1.815276,-0.07966 2.712794,-0.186131 0.05017,-0.735083 0.102822,-1.470987 0.138241,-2.191754 1.11e-4,-6.54e-4 1.41e-4,-9.81e-4 3.27e-4,-0.0016 0.0025,-0.04387 0.0056,-0.08937 0.01118,-0.136326 z M 27.250127,46.734478 c -0.07419,1.573656 -0.127974,2.782614 -0.185174,4.064242 l 4.383509,-3.85257 c -0.867951,-0.07311 -1.730564,-0.147807 -2.574234,-0.201137 -0.546534,0.0059 -1.087346,3.27e-4 -1.624101,-0.01053 z m 19.370123,0.158037 c -1.282905,0.148452 -2.510957,0.163587 -3.713689,0.14303 l -0.854992,0.751549 c 0.0031,0.779182 0.0025,1.560411 0.0348,2.322653 l -0.0013,-0.01309 h -6.54e-4 c 0.02459,0.245825 0.03898,0.488745 0.05683,0.732713 z m -11.800351,7.250507 -1.267801,1.114233 c 0.410142,-6.54e-4 0.823862,-0.0035 1.240344,-0.008 0.01064,-0.36805 0.01427,-0.739603 0.02746,-1.106252 z" />
    </g>
    <rect
       style="fill:none;fill-opacity:1;stroke:none;stroke-width:2;paint-order:markers fill stroke;stop-color:#000000"
       id="rect10858"
       width="67.73333"
       height="67.73333"
       x="0"
       y="0" />
  </g>
</svg>
